<svg width="1364" height="1064" viewBox="0 0 1364 1064" fill="none" xmlns="http://www.w3.org/2000/svg">
<path d="M2 300.184L32.8407 264.838V43.7382L51.2699 2H460.473L476.646 43.7382V179.481H679.743L695.54 203.923V264.838H1140.1V203.923L1155.14 179.481H1258.38H1361.62V881.51H1155.14L1139.34 864.214V1016.13L1127.31 1062H713.969L696.668 1016.13V864.214L686.137 881.51H476.646V795.778H32.8407L2 764.944V300.184Z" fill="#CCB8D6"/>
<path d="M1139.34 795.778V864.214M1139.34 864.214V1016.13L1127.31 1062H713.969L696.668 1016.13V795.778V864.214L686.137 881.51H476.646V795.778H32.8407L2 764.944V300.184L32.8407 264.838V43.7382L51.2699 2H460.473L476.646 43.7382V264.838V179.481H679.743L695.54 203.923V264.838H1140.1V203.923L1155.14 179.481H1258.38H1361.62V881.51H1155.14L1139.34 864.214Z" stroke="#181938" stroke-width="3"/>
<line x1="32.0879" y1="42.9902" x2="476.648" y2="42.9902" stroke="#181938" stroke-width="3" stroke-dasharray="6 6"/>
<line x1="32.0898" y1="265.594" x2="476.65" y2="265.594" stroke="#181938" stroke-width="3" stroke-dasharray="6 6"/>
<line x1="694.787" y1="796.534" x2="1139.35" y2="796.534" stroke="#181938" stroke-width="3" stroke-dasharray="6 6"/>
<line x1="1137.85" y1="798.034" x2="1137.85" y2="267.094" stroke="#181938" stroke-width="3" stroke-dasharray="6 6"/>
<line x1="693.287" y1="794.274" x2="693.287" y2="263.334" stroke="#181938" stroke-width="3" stroke-dasharray="6 6"/>
<line x1="30.5898" y1="798.034" x2="30.5898" y2="267.094" stroke="#181938" stroke-width="3" stroke-dasharray="6 6"/>
<line x1="475.146" y1="798.034" x2="475.146" y2="267.094" stroke="#181938" stroke-width="3" stroke-dasharray="6 6"/>
<line x1="694.787" y1="1015.38" x2="1139.35" y2="1015.38" stroke="#181938" stroke-width="3" stroke-dasharray="6 6"/>
<line x1="476.646" y1="265.594" x2="694.788" y2="265.594" stroke="#181938" stroke-width="3" stroke-dasharray="6 6"/>
<line x1="476.646" y1="796.534" x2="694.788" y2="796.534" stroke="#181938" stroke-width="3" stroke-dasharray="6 6"/>
<line x1="1143.86" y1="796.534" x2="1362" y2="796.534" stroke="#181938" stroke-width="3" stroke-dasharray="6 6"/>
<line x1="1139.35" y1="265.594" x2="1357.49" y2="265.594" stroke="#181938" stroke-width="3" stroke-dasharray="6 6"/>
<mask id="mask0_254_16" style="mask-type:alpha" maskUnits="userSpaceOnUse" x="695" y="455" width="438" height="339">
<rect x="695" y="455" width="438" height="339" fill="#CCB8D6"/>
</mask>
<g mask="url(#mask0_254_16)">
<path d="M790.284 713.575C865.521 683.798 784.862 868.005 755.715 792.522C784.862 868.005 602.192 788.018 677.428 758.242C602.192 788.018 681.492 606.915 711.413 680.628C681.49 606.921 865.518 683.804 790.282 713.58L790.284 713.575Z" fill="#FCC65D"/>
<path d="M794.524 484.762C846.449 447.672 898.375 499.598 861.285 551.523C898.375 603.449 846.449 655.375 794.524 618.285C742.598 655.375 690.672 603.449 727.762 551.523C690.672 499.598 742.598 447.672 794.524 484.762Z" fill="#FCC65D"/>
<path d="M1074.52 684.515C1181.42 579.325 1181.42 765.096 1074.52 764.133C1181.42 765.096 1181.42 947.496 1074.52 842.306C1181.42 947.496 994.347 947.496 994.347 842.306C994.347 947.496 807.275 947.496 914.176 842.306C807.275 947.496 807.275 756.015 914.176 760.248C807.275 756.027 807.275 585.539 914.176 687.18C807.275 585.539 986.742 582.561 991.092 685.904C986.742 582.561 1181.43 579.325 1074.53 684.515H1074.52Z" fill="#FCC65D"/>
</g>
<mask id="mask1_254_16" style="mask-type:alpha" maskUnits="userSpaceOnUse" x="37" y="44" width="438" height="219">
<rect x="37" y="44" width="438" height="219" fill="#CCB8D6"/>
</mask>
<g mask="url(#mask1_254_16)">
<path d="M88.3371 150.748C72.263 202.621 -21.6913 195.758 -54.7316 145.398C-21.2943 110.281 45.695 97.273 89.1206 142.95" fill="#FCC65D"/>
<path d="M99.3125 142.001C153.464 137.901 167.73 44.7831 126.008 1.34263C84.3173 26.105 56.6956 88.5053 91.5365 141.025" fill="#FCC65D"/>
<path d="M80.3371 299.748C64.263 351.621 -29.6913 344.758 -62.7316 294.398C-29.2943 259.281 37.695 246.273 81.1206 291.95" fill="#FCC65D"/>
<path d="M91.3125 291.001C145.464 286.901 159.73 193.783 118.008 150.343C76.3173 175.105 48.6956 237.505 83.5365 290.025" fill="#FCC65D"/>
<path d="M245.703 220.739C274.064 267.052 206.897 333.105 147.256 324.689C142.944 276.391 177.385 217.48 240.362 215.004" fill="#FCC65D"/>
<path d="M246.375 206.72C279.037 163.333 218.497 91.1565 158.325 93.8289C149.411 141.492 178.059 203.428 240.51 211.918" fill="#FCC65D"/>
<path d="M329.337 72.7481C313.263 124.621 219.309 117.758 186.268 67.398C219.706 32.281 286.695 19.273 330.121 64.9505" fill="#FCC65D"/>
<path d="M340.313 64.0006C394.464 59.9014 408.73 -33.2169 367.008 -76.6574C325.317 -51.895 297.696 10.5053 332.537 63.0251" fill="#FCC65D"/>
<path d="M289.971 249.804C246.893 216.736 285.918 130.994 344.612 117.472C365.951 161.014 354.917 228.356 297.013 253.243" fill="#FCC65D"/>
<path d="M294.369 263.132C279.432 315.344 361.822 361.021 417.037 336.956C408.272 289.265 359.325 241.715 297.981 256.177" fill="#FCC65D"/>
<path d="M487.029 46.2474C506.285 97.0254 428.008 149.44 370.973 130.082C375.714 81.8248 420.508 30.3437 482.847 39.6192" fill="#FCC65D"/>
<path d="M490.295 32.5977C530.454 -3.96082 484.388 -86.134 424.768 -94.695C407.149 -49.5196 423.782 16.6627 483.566 36.6146" fill="#FCC65D"/>
<path d="M508.337 202.748C492.263 254.621 398.309 247.758 365.268 197.398C398.706 162.281 465.695 149.273 509.121 194.95" fill="#FCC65D"/>
<path d="M519.313 194.001C573.464 189.901 587.73 96.7831 546.008 53.3426C504.317 78.105 476.696 140.505 511.537 193.025" fill="#FCC65D"/>
</g>
</svg>
