<svg width="41" height="43" viewBox="0 0 41 43" fill="none" xmlns="http://www.w3.org/2000/svg">
<path fill-rule="evenodd" clip-rule="evenodd" d="M20.9851 5.66932C17.9149 1.63819 13.8635 -0.691281 10.8375 0.182922C6.93824 1.3094 6.21815 7.32872 9.22912 13.6275C11.5031 18.3845 15.2549 21.9405 18.635 22.911V31.0058C17.5666 29.2084 16.1474 27.3522 14.2177 25.3926C8.06331 19.1424 4.56569 19.4088 0 19.8035C1.13056 26.1778 1.91501 30.598 8.06945 36.8481C12.4645 41.3115 15.7077 42.4494 18.7206 42.5931C18.718 42.6083 18.7154 42.6236 18.7128 42.6389C22.8804 43.0293 26.7761 43.2999 32.9305 37.0498C39.085 30.7997 39.8694 26.3795 41 20.0052C36.4343 19.6105 32.9367 19.3441 26.7823 25.5943C24.3759 28.038 22.7635 30.3207 21.635 32.5293V23.1752C25.3822 23.1271 30.0763 19.202 32.741 13.6275C35.752 7.32872 35.0319 1.3094 31.1327 0.182922C28.1066 -0.691281 24.0552 1.63819 20.9851 5.66932ZM20.5514 34.9924H20.5229C20.5276 35.0053 20.5323 35.0182 20.537 35.0311C20.5417 35.0182 20.5465 35.0053 20.5514 34.9924Z" fill="white"/>
</svg>
