<svg width="1408" height="366" viewBox="0 0 1408 366" fill="none" xmlns="http://www.w3.org/2000/svg">
<mask id="path-1-inside-1_214_3" fill="white">
<path fill-rule="evenodd" clip-rule="evenodd" d="M-1.5 298.595C-12.8257 312.208 -25.9749 320 -40 320C-82.5259 320 -117 248.366 -117 160C-117 71.6344 -82.5259 0 -40 0C-25.9749 0 -12.8257 7.79154 -1.5 21.4052C9.82568 7.79154 22.9749 0 37 0C51.0251 0 64.1743 7.79154 75.5 21.4052C86.8257 7.79154 99.9749 0 114 0C128.025 0 141.174 7.79154 152.5 21.4051C163.826 7.79154 176.975 0 191 0C205.025 0 218.174 7.79154 229.5 21.4051C240.826 7.79154 253.975 0 268 0C282.025 0 295.174 7.79154 306.5 21.4051C317.826 7.79154 330.975 0 345 0C359.025 0 372.174 7.79154 383.5 21.4051C394.826 7.79154 407.975 0 422 0C436.025 0 449.174 7.79154 460.5 21.4051C471.826 7.79154 484.975 0 499 0C513.025 0 526.174 7.79154 537.5 21.4051C548.826 7.79154 561.975 0 576 0C590.025 0 603.174 7.79154 614.5 21.4051C625.826 7.79154 638.975 0 653 0C667.025 0 680.174 7.79154 691.5 21.4051C702.826 7.79154 715.975 0 730 0C744.025 0 757.174 7.79154 768.5 21.4051C779.826 7.79154 792.975 0 807 0C849.526 0 884 71.6344 884 160C884 248.366 849.526 320 807 320C792.975 320 779.826 312.208 768.5 298.595C757.174 312.208 744.025 320 730 320C715.975 320 702.826 312.208 691.5 298.595C680.174 312.208 667.025 320 653 320C638.975 320 625.826 312.208 614.5 298.595C603.174 312.208 590.025 320 576 320C561.975 320 548.826 312.208 537.5 298.595C526.174 312.208 513.025 320 499 320C484.975 320 471.826 312.208 460.5 298.595C449.174 312.208 436.025 320 422 320C407.975 320 394.826 312.208 383.5 298.595C372.174 312.208 359.025 320 345 320C330.975 320 317.826 312.208 306.5 298.595C295.174 312.208 282.025 320 268 320C253.975 320 240.826 312.208 229.5 298.595C218.174 312.208 205.025 320 191 320C176.975 320 163.826 312.208 152.5 298.595C141.174 312.208 128.025 320 114 320C99.9749 320 86.8257 312.208 75.5 298.595C64.1743 312.208 51.0251 320 37 320C22.9749 320 9.82568 312.208 -1.5 298.595Z"/>
</mask>
<path fill-rule="evenodd" clip-rule="evenodd" d="M-1.5 298.595C-12.8257 312.208 -25.9749 320 -40 320C-82.5259 320 -117 248.366 -117 160C-117 71.6344 -82.5259 0 -40 0C-25.9749 0 -12.8257 7.79154 -1.5 21.4052C9.82568 7.79154 22.9749 0 37 0C51.0251 0 64.1743 7.79154 75.5 21.4052C86.8257 7.79154 99.9749 0 114 0C128.025 0 141.174 7.79154 152.5 21.4051C163.826 7.79154 176.975 0 191 0C205.025 0 218.174 7.79154 229.5 21.4051C240.826 7.79154 253.975 0 268 0C282.025 0 295.174 7.79154 306.5 21.4051C317.826 7.79154 330.975 0 345 0C359.025 0 372.174 7.79154 383.5 21.4051C394.826 7.79154 407.975 0 422 0C436.025 0 449.174 7.79154 460.5 21.4051C471.826 7.79154 484.975 0 499 0C513.025 0 526.174 7.79154 537.5 21.4051C548.826 7.79154 561.975 0 576 0C590.025 0 603.174 7.79154 614.5 21.4051C625.826 7.79154 638.975 0 653 0C667.025 0 680.174 7.79154 691.5 21.4051C702.826 7.79154 715.975 0 730 0C744.025 0 757.174 7.79154 768.5 21.4051C779.826 7.79154 792.975 0 807 0C849.526 0 884 71.6344 884 160C884 248.366 849.526 320 807 320C792.975 320 779.826 312.208 768.5 298.595C757.174 312.208 744.025 320 730 320C715.975 320 702.826 312.208 691.5 298.595C680.174 312.208 667.025 320 653 320C638.975 320 625.826 312.208 614.5 298.595C603.174 312.208 590.025 320 576 320C561.975 320 548.826 312.208 537.5 298.595C526.174 312.208 513.025 320 499 320C484.975 320 471.826 312.208 460.5 298.595C449.174 312.208 436.025 320 422 320C407.975 320 394.826 312.208 383.5 298.595C372.174 312.208 359.025 320 345 320C330.975 320 317.826 312.208 306.5 298.595C295.174 312.208 282.025 320 268 320C253.975 320 240.826 312.208 229.5 298.595C218.174 312.208 205.025 320 191 320C176.975 320 163.826 312.208 152.5 298.595C141.174 312.208 128.025 320 114 320C99.9749 320 86.8257 312.208 75.5 298.595C64.1743 312.208 51.0251 320 37 320C22.9749 320 9.82568 312.208 -1.5 298.595Z" fill="#CCB8D6"/>
<path d="M-1.5 298.595L0.806244 296.676L-1.5 293.904L-3.80624 296.676L-1.5 298.595ZM-1.5 21.4052L-3.80624 23.3238L-1.5 26.0959L0.806244 23.3238L-1.5 21.4052ZM75.5 21.4052L73.1938 23.3238L75.5 26.0959L77.8062 23.3238L75.5 21.4052ZM152.5 21.4051L150.194 23.3238L152.5 26.0959L154.806 23.3238L152.5 21.4051ZM229.5 21.4051L227.194 23.3238L229.5 26.0959L231.806 23.3238L229.5 21.4051ZM306.5 21.4051L304.194 23.3238L306.5 26.0959L308.806 23.3238L306.5 21.4051ZM383.5 21.4051L381.194 23.3238L383.5 26.0959L385.806 23.3238L383.5 21.4051ZM460.5 21.4051L458.194 23.3238L460.5 26.0959L462.806 23.3238L460.5 21.4051ZM537.5 21.4051L535.194 23.3238L537.5 26.0959L539.806 23.3238L537.5 21.4051ZM614.5 21.4051L612.194 23.3238L614.5 26.0959L616.806 23.3238L614.5 21.4051ZM691.5 21.4051L689.194 23.3238L691.5 26.0959L693.806 23.3238L691.5 21.4051ZM768.5 21.4051L766.194 23.3238L768.5 26.0959L770.806 23.3238L768.5 21.4051ZM768.5 298.595L770.806 296.676L768.5 293.904L766.194 296.676L768.5 298.595ZM691.5 298.595L693.806 296.676L691.5 293.904L689.194 296.676L691.5 298.595ZM614.5 298.595L616.806 296.676L614.5 293.904L612.194 296.676L614.5 298.595ZM537.5 298.595L539.806 296.676L537.5 293.904L535.194 296.676L537.5 298.595ZM460.5 298.595L462.806 296.676L460.5 293.904L458.194 296.676L460.5 298.595ZM383.5 298.595L385.806 296.676L383.5 293.904L381.194 296.676L383.5 298.595ZM306.5 298.595L308.806 296.676L306.5 293.904L304.194 296.676L306.5 298.595ZM229.5 298.595L231.806 296.676L229.5 293.904L227.194 296.676L229.5 298.595ZM152.5 298.595L154.806 296.676L152.5 293.904L150.194 296.676L152.5 298.595ZM75.5 298.595L77.8062 296.676L75.5 293.904L73.1938 296.676L75.5 298.595ZM-3.80624 296.676C-14.7941 309.884 -27.1746 317 -40 317V323C-24.7753 323 -10.8573 314.533 0.806244 300.513L-3.80624 296.676ZM-40 317C-59.454 317 -77.9418 300.516 -91.744 271.836C-105.443 243.37 -114 203.834 -114 160H-120C-120 204.532 -111.32 244.996 -97.1505 274.438C-83.0841 303.667 -63.072 323 -40 323V317ZM-114 160C-114 116.166 -105.443 76.63 -91.744 48.1639C-77.9418 19.484 -59.454 3 -40 3V-3C-63.072 -3 -83.0841 16.3332 -97.1505 45.562C-111.32 75.0044 -120 115.468 -120 160H-114ZM-40 3C-27.1746 3 -14.7941 10.1163 -3.80624 23.3238L0.806244 19.4865C-10.8573 5.4668 -24.7753 -3 -40 -3V3ZM37 -3C21.7753 -3 7.85727 5.4668 -3.80624 19.4865L0.806244 23.3238C11.7941 10.1163 24.1746 3 37 3V-3ZM77.8062 19.4865C66.1427 5.4668 52.2247 -3 37 -3V3C49.8254 3 62.2059 10.1163 73.1938 23.3238L77.8062 19.4865ZM114 -3C98.7753 -3 84.8573 5.4668 73.1938 19.4865L77.8062 23.3238C88.7941 10.1163 101.175 3 114 3V-3ZM154.806 19.4865C143.143 5.4668 129.225 -3 114 -3V3C126.825 3 139.206 10.1163 150.194 23.3238L154.806 19.4865ZM191 -3C175.775 -3 161.857 5.4668 150.194 19.4865L154.806 23.3238C165.794 10.1163 178.175 3 191 3V-3ZM231.806 19.4865C220.143 5.4668 206.225 -3 191 -3V3C203.825 3 216.206 10.1163 227.194 23.3238L231.806 19.4865ZM268 -3C252.775 -3 238.857 5.4668 227.194 19.4865L231.806 23.3238C242.794 10.1163 255.175 3 268 3V-3ZM308.806 19.4865C297.143 5.4668 283.225 -3 268 -3V3C280.825 3 293.206 10.1163 304.194 23.3238L308.806 19.4865ZM345 -3C329.775 -3 315.857 5.4668 304.194 19.4865L308.806 23.3238C319.794 10.1163 332.175 3 345 3V-3ZM385.806 19.4865C374.143 5.4668 360.225 -3 345 -3V3C357.825 3 370.206 10.1163 381.194 23.3238L385.806 19.4865ZM422 -3C406.775 -3 392.857 5.4668 381.194 19.4865L385.806 23.3238C396.794 10.1163 409.175 3 422 3V-3ZM462.806 19.4865C451.143 5.4668 437.225 -3 422 -3V3C434.825 3 447.206 10.1163 458.194 23.3238L462.806 19.4865ZM499 -3C483.775 -3 469.857 5.4668 458.194 19.4865L462.806 23.3238C473.794 10.1163 486.175 3 499 3V-3ZM539.806 19.4865C528.143 5.4668 514.225 -3 499 -3V3C511.825 3 524.206 10.1163 535.194 23.3238L539.806 19.4865ZM576 -3C560.775 -3 546.857 5.4668 535.194 19.4865L539.806 23.3238C550.794 10.1163 563.175 3 576 3V-3ZM616.806 19.4865C605.143 5.4668 591.225 -3 576 -3V3C588.825 3 601.206 10.1163 612.194 23.3238L616.806 19.4865ZM653 -3C637.775 -3 623.857 5.4668 612.194 19.4865L616.806 23.3238C627.794 10.1163 640.175 3 653 3V-3ZM693.806 19.4865C682.143 5.4668 668.225 -3 653 -3V3C665.825 3 678.206 10.1163 689.194 23.3238L693.806 19.4865ZM730 -3C714.775 -3 700.857 5.4668 689.194 19.4865L693.806 23.3238C704.794 10.1163 717.175 3 730 3V-3ZM770.806 19.4865C759.143 5.4668 745.225 -3 730 -3V3C742.825 3 755.206 10.1163 766.194 23.3238L770.806 19.4865ZM807 -3C791.775 -3 777.857 5.4668 766.194 19.4865L770.806 23.3238C781.794 10.1163 794.175 3 807 3V-3ZM887 160C887 115.468 878.32 75.0044 864.15 45.562C850.084 16.3332 830.072 -3 807 -3V3C826.454 3 844.942 19.484 858.744 48.1639C872.443 76.63 881 116.166 881 160H887ZM807 323C830.072 323 850.084 303.667 864.15 274.438C878.32 244.996 887 204.532 887 160H881C881 203.834 872.443 243.37 858.744 271.836C844.942 300.516 826.454 317 807 317V323ZM766.194 300.513C777.857 314.533 791.775 323 807 323V317C794.175 317 781.794 309.884 770.806 296.676L766.194 300.513ZM730 323C745.225 323 759.143 314.533 770.806 300.513L766.194 296.676C755.206 309.884 742.825 317 730 317V323ZM689.194 300.513C700.857 314.533 714.775 323 730 323V317C717.175 317 704.794 309.884 693.806 296.676L689.194 300.513ZM653 323C668.225 323 682.143 314.533 693.806 300.513L689.194 296.676C678.206 309.884 665.825 317 653 317V323ZM612.194 300.513C623.857 314.533 637.775 323 653 323V317C640.175 317 627.794 309.884 616.806 296.676L612.194 300.513ZM576 323C591.225 323 605.143 314.533 616.806 300.513L612.194 296.676C601.206 309.884 588.825 317 576 317V323ZM535.194 300.513C546.857 314.533 560.775 323 576 323V317C563.175 317 550.794 309.884 539.806 296.676L535.194 300.513ZM499 323C514.225 323 528.143 314.533 539.806 300.513L535.194 296.676C524.206 309.884 511.825 317 499 317V323ZM458.194 300.513C469.857 314.533 483.775 323 499 323V317C486.175 317 473.794 309.884 462.806 296.676L458.194 300.513ZM422 323C437.225 323 451.143 314.533 462.806 300.513L458.194 296.676C447.206 309.884 434.825 317 422 317V323ZM381.194 300.513C392.857 314.533 406.775 323 422 323V317C409.175 317 396.794 309.884 385.806 296.676L381.194 300.513ZM345 323C360.225 323 374.143 314.533 385.806 300.513L381.194 296.676C370.206 309.884 357.825 317 345 317V323ZM304.194 300.513C315.857 314.533 329.775 323 345 323V317C332.175 317 319.794 309.884 308.806 296.676L304.194 300.513ZM268 323C283.225 323 297.143 314.533 308.806 300.513L304.194 296.676C293.206 309.884 280.825 317 268 317V323ZM227.194 300.513C238.857 314.533 252.775 323 268 323V317C255.175 317 242.794 309.884 231.806 296.676L227.194 300.513ZM191 323C206.225 323 220.143 314.533 231.806 300.513L227.194 296.676C216.206 309.884 203.825 317 191 317V323ZM150.194 300.513C161.857 314.533 175.775 323 191 323V317C178.175 317 165.794 309.884 154.806 296.676L150.194 300.513ZM114 323C129.225 323 143.143 314.533 154.806 300.513L150.194 296.676C139.206 309.884 126.825 317 114 317V323ZM73.1938 300.513C84.8573 314.533 98.7753 323 114 323V317C101.175 317 88.7941 309.884 77.8062 296.676L73.1938 300.513ZM37 323C52.2247 323 66.1427 314.533 77.8062 300.513L73.1938 296.676C62.2059 309.884 49.8254 317 37 317V323ZM-3.80624 300.513C7.85727 314.533 21.7753 323 37 323V317C24.1746 317 11.7941 309.884 0.806244 296.676L-3.80624 300.513Z" fill="#181938" mask="url(#path-1-inside-1_214_3)"/>
<path d="M1064.68 204.101C1049.35 245.353 1027.45 279.639 1004.5 301.738C981.46 323.919 957.782 333.466 938.699 326.374C919.616 319.282 907.919 296.59 904.957 264.747C902.007 233.022 907.81 192.753 923.14 151.501C938.47 110.249 960.373 75.9635 983.325 53.8644C1006.36 31.6831 1030.04 22.1367 1049.12 29.2284C1068.21 36.3201 1079.9 59.0122 1082.87 90.8553C1085.82 122.58 1080.01 162.849 1064.68 204.101Z" fill="#CCB8D6" stroke="#181938" stroke-width="3"/>
<path d="M1259.46 302.44C1218.87 319.427 1178.87 326.855 1147.05 325.191C1115.11 323.521 1091.96 312.752 1084.11 293.971C1076.25 275.19 1084.83 251.146 1106.06 227.229C1127.21 203.401 1160.58 180.129 1201.18 163.142C1241.78 146.156 1281.78 138.728 1313.6 140.392C1345.53 142.062 1368.68 152.831 1376.54 171.612C1384.4 190.392 1375.82 214.437 1354.59 238.353C1333.43 262.181 1300.06 285.453 1259.46 302.44Z" fill="#CCB8D6" stroke="#181938" stroke-width="3"/>
</svg>
