<svg width="330" height="546" viewBox="0 0 330 546" fill="none" xmlns="http://www.w3.org/2000/svg">
<path d="M246.669 80.5487C355.41 98.004 355.41 220.191 246.669 237.646C228.545 342.378 101.68 342.378 83.5562 237.646C-25.1854 220.191 -25.1854 98.004 83.5562 80.5487C101.68 -24.1829 228.545 -24.1829 246.669 80.5487Z" fill="#FCC65D"/>
<path d="M246.669 80.5487C355.41 98.004 355.41 220.191 246.669 237.646C228.545 342.378 101.68 342.378 83.5562 237.646C-25.1854 220.191 -25.1854 98.004 83.5562 80.5487C101.68 -24.1829 228.545 -24.1829 246.669 80.5487Z" stroke="#181938" stroke-width="2.5" stroke-miterlimit="10"/>
<path d="M186.728 173.33C189.682 172.055 197.379 168.72 203.286 171.54C210.569 175.009 213.477 187.048 211.162 195.787C206.027 215.1 174.859 219.833 171.357 220.359C146.409 224.141 126.26 212.481 118.575 207.424C102.89 199.39 103.584 171.294 123.464 170.869C136.351 173.017 144.362 188.19 159.263 184.967C162.765 184.878 168.135 184.296 173.818 181.532C179.77 178.645 180.889 175.881 186.728 173.341V173.33Z" fill="white"/>
<path d="M187.477 174.583C189.177 173.789 187.701 171.271 186.011 172.066C178.706 175.49 173.638 181.174 165.348 182.83C158.468 184.206 151.733 184.531 145.412 181.14C136.597 176.407 128.105 166.471 117.186 170.555C102.43 176.049 103.683 197.555 114.367 206.35C129.694 218.982 152.639 224.678 171.982 221.724C185.351 219.687 201.551 214.775 209.483 202.993C214.618 195.351 214.752 184.284 210.176 176.329C204.762 166.941 194.704 168.328 186.023 172.054C184.3 172.793 185.788 175.299 187.488 174.572C193.686 171.92 201.562 169.805 206.417 176.004C209.852 180.39 210.948 186.612 210.389 192.05C209.371 201.885 201.573 208.341 193.205 212.392C179.847 218.859 163.748 221.231 149.194 218.49C140.344 216.823 131.853 213.533 124.044 209.057C117.791 205.466 112.197 201.818 110.015 194.511C108.002 187.798 109.087 179.238 115.128 174.885C123.284 169.022 131.171 175.21 138.387 180.156C145.602 185.101 151.621 187.238 160.37 186.354C165.337 185.862 169.924 185.034 174.556 182.763C179.187 180.491 182.789 176.765 187.466 174.572V174.55L187.477 174.583Z" fill="#181938"/>
<path d="M159.822 185.515C160.963 197.421 161.198 209.405 163.301 221.198C163.637 223.044 166.445 222.261 166.109 220.415C164.051 208.879 163.838 197.152 162.731 185.515C162.552 183.658 159.632 183.647 159.811 185.515H159.822Z" fill="#181938"/>
<path d="M135.131 177.381C132.849 189.365 130.868 201.382 130.13 213.567C130.018 215.447 132.927 215.436 133.05 213.567C133.766 201.639 135.713 189.891 137.95 178.153C138.297 176.318 135.489 175.535 135.142 177.37L135.131 177.381Z" fill="#181938"/>
<path d="M184.625 155.841C210.614 76.7107 151.622 61.4597 169.645 152.54C172.308 152.854 175.776 153.581 179.468 155.338C180.821 155.975 182.03 156.68 183.092 157.374L184.625 155.841Z" fill="white"/>
<path d="M182.343 158.617C183.943 159.624 185.397 157.095 183.808 156.099C179.456 153.358 174.724 151.735 169.623 151.075L171.032 152.149C168.224 137.771 166.065 122.319 168.616 107.717C169.5 102.67 171.178 94.737 176.357 92.1858C180.34 90.2389 183.719 93.9985 185.509 97.165C189.402 104.069 190.017 112.718 189.838 120.461C189.704 126.582 188.899 132.68 187.69 138.666C187.008 142.012 186.191 145.346 185.263 148.636C184.491 151.444 184.099 154.286 182.041 156.334C180.709 157.665 182.768 159.735 184.099 158.393C186.672 155.808 187.22 152.462 188.183 148.994C189.335 144.854 190.308 140.658 191.058 136.428C192.266 129.614 192.96 122.665 192.702 115.739C192.411 108.052 191.158 99.1455 186.158 92.9579C183.126 89.1871 178.293 87.2961 173.975 90.2165C168.101 94.1999 166.3 102.827 165.416 109.328C163.436 123.796 165.416 138.722 168.213 152.944C168.347 153.615 169.019 153.939 169.623 154.018C174.198 154.588 178.45 156.188 182.343 158.639V158.617Z" fill="#181938"/>
<path d="M182.421 176.262C186.024 188.671 188.742 201.337 193.296 213.455C193.944 215.201 196.775 214.44 196.104 212.672C191.561 200.554 188.832 187.876 185.229 175.479C184.704 173.677 181.896 174.449 182.421 176.262Z" fill="#181938"/>
<path d="M142.895 155.987C113.092 78.2102 171.255 60.106 157.696 151.959C155.034 152.395 151.621 153.301 148.019 155.226C146.699 155.942 145.513 156.692 144.495 157.441L142.895 155.987Z" fill="white"/>
<path d="M143.767 156.177C142.234 157.251 143.7 159.78 145.232 158.695C149.137 155.965 153.399 154.197 158.087 153.369C158.534 153.29 159.038 152.798 159.105 152.35C161.342 136.92 162.853 120.349 159.015 105.031C157.572 99.3021 154.854 91.4249 148.723 89.1534C143.689 87.296 139.348 90.9997 137.021 95.1621C132.826 102.648 132.434 112.136 132.982 120.483C133.396 126.951 134.537 133.385 136.137 139.673C137.099 143.489 138.251 147.259 139.527 150.974C140.534 153.917 141.149 156.367 143.454 158.46C144.841 159.724 146.911 157.665 145.512 156.401C143.051 154.174 142.402 150.515 141.384 147.382C140.22 143.746 139.18 140.065 138.319 136.339C136.864 129.994 135.88 123.516 135.746 117.004C135.6 109.91 136.171 101.719 140.165 95.5985C142.268 92.3648 145.769 90.2052 149.293 92.7452C154.552 96.5272 156.218 104.751 157.192 110.682C159.418 124.131 158.221 138.174 156.274 151.567L157.292 150.549C152.381 151.422 147.828 153.313 143.733 156.177H143.756H143.767Z" fill="#181938"/>
<path d="M186.682 123.773C186.682 116.97 183.371 111.465 179.276 111.465C175.182 111.465 171.87 116.981 171.87 123.773C171.87 130.565 175.182 136.081 179.276 136.081C183.371 136.081 186.682 130.565 186.682 123.773Z" fill="#181938"/>
<path d="M154.24 123.94C154.24 117.137 150.929 111.632 146.834 111.632C142.739 111.632 139.428 117.148 139.428 123.94C139.428 130.732 142.739 136.248 146.834 136.248C150.929 136.248 154.24 130.732 154.24 123.94Z" fill="#181938"/>
<path d="M183.818 115.191C183.818 112.505 181.637 110.323 178.952 110.323C176.267 110.323 174.085 112.505 174.085 115.191C174.085 117.876 176.267 120.058 178.952 120.058C181.637 120.058 183.818 117.876 183.818 115.191Z" fill="white"/>
<path d="M151.891 115.225C151.891 112.539 149.709 110.357 147.024 110.357C144.34 110.357 142.158 112.539 142.158 115.225C142.158 117.91 144.34 120.092 147.024 120.092C149.709 120.092 151.891 117.91 151.891 115.225Z" fill="white"/>
<path d="M163 316L164 569" stroke="#181938" stroke-width="3"/>
<mask id="path-17-inside-1_402_5" fill="white">
<path d="M155.846 409.725C110.944 440.271 41.75 376.344 47.3009 316.369C95.3366 309.749 155.83 341.33 161.319 404.116"/>
</mask>
<path d="M155.846 409.725C110.944 440.271 41.75 376.344 47.3009 316.369C95.3366 309.749 155.83 341.33 161.319 404.116" fill="#FCC65D"/>
<path d="M47.3009 316.369L46.8765 313.151L44.8054 313.436L44.5783 315.889L47.3009 316.369ZM154.41 406.9C133.244 421.299 105.95 413.64 84.2365 394.426C62.5202 375.209 47.3913 345.289 50.0234 316.85L44.5783 315.889C41.6596 347.425 58.3523 379.456 81.0708 399.559C103.792 419.666 133.546 428.698 157.282 412.55L154.41 406.9ZM47.7253 319.588C71.1801 316.355 97.7039 322.465 118.967 337.004C140.185 351.513 155.965 374.244 158.595 404.32L164.043 403.911C161.183 371.202 143.972 346.749 121.562 331.426C99.1979 316.133 71.4573 309.763 46.8765 313.151L47.7253 319.588Z" fill="#181938" mask="url(#path-17-inside-1_402_5)"/>
<mask id="path-19-inside-2_402_5" fill="white">
<path d="M169.881 409.725C214.782 440.271 283.977 376.344 278.426 316.369C230.39 309.749 169.897 341.33 164.408 404.116"/>
</mask>
<path d="M169.881 409.725C214.782 440.271 283.977 376.344 278.426 316.369C230.39 309.749 169.897 341.33 164.408 404.116" fill="#FCC65D"/>
<path d="M278.426 316.369L278.85 313.151L280.921 313.436L281.148 315.889L278.426 316.369ZM171.317 406.9C192.482 421.299 219.777 413.64 241.49 394.426C263.206 375.209 278.335 345.289 275.703 316.85L281.148 315.889C284.067 347.425 267.374 379.456 244.656 399.559C221.934 419.666 192.181 428.698 168.445 412.55L171.317 406.9ZM278.001 319.588C254.546 316.355 228.023 322.465 206.76 337.004C185.542 351.513 169.761 374.244 167.132 404.32L161.684 403.911C164.544 371.202 181.754 346.749 204.164 331.426C226.529 316.133 254.269 309.763 278.85 313.151L278.001 319.588Z" fill="#181938" mask="url(#path-19-inside-2_402_5)"/>
</svg>
