<svg width="324" height="805" viewBox="0 0 324 805" fill="none" xmlns="http://www.w3.org/2000/svg">
<path d="M159.75 259.994V834" stroke="#181938" stroke-width="3"/>
<path d="M242.529 78.2926C349.431 -26.9436 349.431 341.389 242.529 236.152C349.431 341.389 -24.7254 341.389 82.1763 236.152C-24.7254 341.389 -24.7254 -20.7381 82.1763 80.9585C-24.7254 -20.7269 349.431 -26.9324 242.529 78.3038V78.2926Z" fill="#FCC65D"/>
<path d="M242.529 78.2926C349.431 -26.9436 349.431 341.389 242.529 236.152C349.431 341.389 -24.7254 341.389 82.1763 236.152C-24.7254 341.389 -24.7254 -20.7381 82.1763 80.9585C-24.7254 -20.7269 349.431 -26.9324 242.529 78.3038V78.2926Z" stroke="#181938" stroke-width="2.5" stroke-miterlimit="10"/>
<path d="M183.789 171.107C186.741 169.83 194.436 166.492 200.342 169.315C207.623 172.787 210.531 184.84 208.216 193.588C203.082 212.921 171.922 217.659 168.421 218.186C143.48 221.972 123.336 210.3 115.652 205.237C99.9717 197.195 100.665 169.068 120.54 168.642C133.425 170.793 141.433 185.982 156.331 182.756C159.831 182.666 165.2 182.084 170.882 179.317C176.832 176.427 177.95 173.661 183.789 171.118V171.107Z" fill="white"/>
<path d="M184.538 172.372C186.238 171.577 184.761 169.057 183.072 169.852C175.769 173.28 170.702 178.97 162.415 180.628C155.536 182.005 148.803 182.33 142.484 178.936C133.67 174.198 125.181 164.251 114.265 168.34C99.5128 173.84 100.765 195.368 111.447 204.173C126.769 216.819 149.709 222.52 169.047 219.563C182.413 217.525 198.608 212.607 206.538 200.812C211.671 193.162 211.805 182.084 207.231 174.12C201.818 164.722 191.763 166.111 183.084 169.841C181.361 170.58 182.849 173.089 184.549 172.361C190.745 169.706 198.619 167.589 203.473 173.795C206.907 178.186 208.003 184.414 207.443 189.857C206.426 199.703 198.63 206.167 190.264 210.221C176.91 216.696 160.815 219.07 146.264 216.326C137.417 214.657 128.928 211.364 121.121 206.883C114.869 203.288 109.277 199.636 107.096 192.322C105.083 185.601 106.168 177.032 112.207 172.675C120.361 166.805 128.246 173 135.46 177.95C142.674 182.901 148.691 185.041 157.437 184.156C162.403 183.663 166.989 182.834 171.619 180.56C176.25 178.287 179.851 174.556 184.526 172.361V172.339L184.538 172.372Z" fill="#181938"/>
<path d="M156.89 183.304C158.031 195.222 158.266 207.219 160.368 219.025C160.704 220.873 163.511 220.089 163.176 218.241C161.118 206.692 160.905 194.953 159.798 183.304C159.619 181.445 156.7 181.433 156.879 183.304H156.89Z" fill="#181938"/>
<path d="M132.194 175.16C129.912 187.157 127.933 199.187 127.194 211.385C127.083 213.267 129.991 213.256 130.114 211.385C130.829 199.445 132.776 187.683 135.012 175.933C135.359 174.096 132.552 173.312 132.205 175.149L132.194 175.16Z" fill="#181938"/>
<path d="M181.674 153.598C207.656 74.3827 148.68 59.1153 166.698 150.294C169.36 150.608 172.827 151.336 176.518 153.094C177.871 153.733 179.079 154.438 180.142 155.133L181.674 153.598Z" fill="white"/>
<path d="M179.404 156.376C181.004 157.384 182.458 154.853 180.87 153.856C176.519 151.111 171.788 149.487 166.688 148.826L168.097 149.902C165.289 135.508 163.131 120.039 165.681 105.421C166.565 100.37 168.242 92.4279 173.421 89.874C177.402 87.925 180.78 91.6886 182.57 94.8586C186.462 101.77 187.077 110.428 186.898 118.18C186.764 124.307 185.958 130.412 184.751 136.404C184.068 139.753 183.252 143.091 182.324 146.385C181.552 149.196 181.16 152.041 179.102 154.091C177.771 155.424 179.829 157.496 181.16 156.152C183.733 153.565 184.281 150.215 185.243 146.743C186.395 142.599 187.368 138.398 188.117 134.164C189.325 127.342 190.018 120.386 189.761 113.453C189.47 105.757 188.218 96.8412 183.218 90.6469C180.187 86.8721 175.356 84.9791 171.038 87.9026C165.166 91.8902 163.366 100.526 162.482 107.034C160.503 121.518 162.482 136.46 165.278 150.697C165.413 151.369 166.084 151.694 166.688 151.772C171.262 152.344 175.512 153.945 179.404 156.399V156.376Z" fill="#181938"/>
<path d="M179.482 174.041C183.084 186.464 185.801 199.143 190.353 211.274C191.002 213.022 193.832 212.26 193.161 210.49C188.62 198.359 185.891 185.668 182.289 173.257C181.764 171.454 178.956 172.227 179.482 174.041Z" fill="#181938"/>
<path d="M139.956 153.744C110.16 75.884 168.308 57.7603 154.753 149.712C152.091 150.149 148.679 151.056 145.078 152.982C143.758 153.699 142.573 154.45 141.555 155.2L139.956 153.744Z" fill="white"/>
<path d="M140.839 153.946C139.307 155.021 140.772 157.553 142.304 156.466C146.208 153.733 150.469 151.963 155.155 151.134C155.603 151.056 156.106 150.563 156.173 150.115C158.41 134.669 159.92 118.079 156.084 102.745C154.641 97.0098 151.923 89.1241 145.794 86.8502C140.761 84.9908 136.421 88.6985 134.095 92.8653C129.901 100.359 129.509 109.858 130.057 118.214C130.471 124.688 131.612 131.129 133.211 137.424C134.173 141.244 135.325 145.019 136.6 148.737C137.607 151.683 138.222 154.136 140.526 156.231C141.913 157.497 143.982 155.436 142.584 154.17C140.123 151.941 139.475 148.278 138.457 145.142C137.294 141.501 136.254 137.816 135.392 134.086C133.938 127.735 132.954 121.249 132.82 114.73C132.675 107.629 133.245 99.4293 137.238 93.3022C139.341 90.065 142.841 87.9032 146.364 90.4459C151.621 94.2319 153.288 102.465 154.261 108.402C156.486 121.865 155.29 135.923 153.344 149.331L154.361 148.312C149.451 149.185 144.899 151.078 140.806 153.946H140.828H140.839Z" fill="#181938"/>
<path d="M187.087 121.495C187.087 114.685 183.776 109.174 179.683 109.174C175.589 109.174 172.279 114.696 172.279 121.495C172.279 128.294 175.589 133.817 179.683 133.817C183.776 133.817 187.087 128.294 187.087 121.495Z" fill="#181938"/>
<path d="M155.771 121.676C155.771 114.866 152.46 109.354 148.367 109.354C144.273 109.354 140.963 114.877 140.963 121.676C140.963 128.475 144.273 133.997 148.367 133.997C152.46 133.997 155.771 128.475 155.771 121.676Z" fill="#181938"/>
<path d="M180.881 114.036C180.881 111.347 178.7 109.163 176.016 109.163C173.332 109.163 171.151 111.347 171.151 114.036C171.151 116.724 173.332 118.908 176.016 118.908C178.7 118.908 180.881 116.724 180.881 114.036Z" fill="white"/>
<path d="M148.948 115.178C148.948 112.49 146.767 110.306 144.083 110.306C141.399 110.306 139.218 112.49 139.218 115.178C139.218 117.867 141.399 120.051 144.083 120.051C146.767 120.051 148.948 117.867 148.948 115.178Z" fill="white"/>
<mask id="path-17-inside-1_402_3" fill="white">
<path d="M152.846 444.725C107.944 475.271 38.75 411.344 44.3009 351.369C92.3366 344.749 152.83 376.33 158.319 439.116"/>
</mask>
<path d="M152.846 444.725C107.944 475.271 38.75 411.344 44.3009 351.369C92.3366 344.749 152.83 376.33 158.319 439.116" fill="#FCC65D"/>
<path d="M44.3009 351.369L43.8765 348.151L41.8054 348.436L41.5783 350.889L44.3009 351.369ZM151.41 441.9C130.244 456.299 102.95 448.64 81.2365 429.426C59.5202 410.209 44.3913 380.289 47.0234 351.85L41.5783 350.889C38.6596 382.425 55.3523 414.456 78.0708 434.559C100.792 454.666 130.546 463.698 154.282 447.55L151.41 441.9ZM44.7253 354.588C68.1801 351.355 94.7039 357.465 115.967 372.004C137.185 386.513 152.965 409.244 155.595 439.32L161.043 438.911C158.183 406.202 140.972 381.749 118.562 366.426C96.1979 351.133 68.4573 344.763 43.8765 348.151L44.7253 354.588Z" fill="#181938" mask="url(#path-17-inside-1_402_3)"/>
<mask id="path-19-inside-2_402_3" fill="white">
<path d="M166.881 444.725C211.782 475.271 280.977 411.344 275.426 351.369C227.39 344.749 166.897 376.33 161.408 439.116"/>
</mask>
<path d="M166.881 444.725C211.782 475.271 280.977 411.344 275.426 351.369C227.39 344.749 166.897 376.33 161.408 439.116" fill="#FCC65D"/>
<path d="M275.426 351.369L275.85 348.151L277.921 348.436L278.148 350.889L275.426 351.369ZM168.317 441.9C189.482 456.299 216.777 448.64 238.49 429.426C260.206 410.209 275.335 380.289 272.703 351.85L278.148 350.889C281.067 382.425 264.374 414.456 241.656 434.559C218.934 454.666 189.181 463.698 165.445 447.55L168.317 441.9ZM275.001 354.588C251.546 351.355 225.023 357.465 203.76 372.004C182.542 386.513 166.761 409.244 164.132 439.32L158.684 438.911C161.544 406.202 178.754 381.749 201.164 366.426C223.529 351.133 251.269 344.763 275.85 348.151L275.001 354.588Z" fill="#181938" mask="url(#path-19-inside-2_402_3)"/>
<mask id="path-21-inside-3_402_3" fill="white">
<path d="M152.846 721.725C107.944 752.271 38.75 688.344 44.3009 628.369C92.3366 621.749 152.83 653.33 158.319 716.116"/>
</mask>
<path d="M152.846 721.725C107.944 752.271 38.75 688.344 44.3009 628.369C92.3366 621.749 152.83 653.33 158.319 716.116" fill="#FCC65D"/>
<path d="M44.3009 628.369L43.8765 625.151L41.8054 625.436L41.5784 627.889L44.3009 628.369ZM151.41 718.9C130.244 733.299 102.95 725.64 81.2365 706.426C59.5203 687.209 44.3913 657.289 47.0234 628.85L41.5784 627.889C38.6596 659.425 55.3523 691.456 78.0709 711.559C100.792 731.666 130.546 740.698 154.282 724.55L151.41 718.9ZM44.7253 631.588C68.1801 628.355 94.704 634.465 115.967 649.004C137.185 663.513 152.965 686.244 155.595 716.32L161.043 715.911C158.183 683.202 140.972 658.749 118.562 643.426C96.1979 628.133 68.4573 621.763 43.8765 625.151L44.7253 631.588Z" fill="#181938" mask="url(#path-21-inside-3_402_3)"/>
<mask id="path-23-inside-4_402_3" fill="white">
<path d="M166.881 721.725C211.782 752.271 280.977 688.344 275.426 628.369C227.39 621.749 166.897 653.33 161.408 716.116"/>
</mask>
<path d="M166.881 721.725C211.782 752.271 280.977 688.344 275.426 628.369C227.39 621.749 166.897 653.33 161.408 716.116" fill="#FCC65D"/>
<path d="M275.426 628.369L275.85 625.151L277.921 625.436L278.148 627.889L275.426 628.369ZM168.317 718.9C189.482 733.299 216.777 725.64 238.49 706.426C260.206 687.209 275.335 657.289 272.703 628.85L278.148 627.889C281.067 659.425 264.374 691.456 241.656 711.559C218.934 731.666 189.181 740.698 165.445 724.55L168.317 718.9ZM275.001 631.588C251.546 628.355 225.023 634.465 203.76 649.004C182.542 663.513 166.761 686.244 164.132 716.32L158.684 715.911C161.544 683.202 178.754 658.749 201.164 643.426C223.529 628.133 251.269 621.763 275.85 625.151L275.001 631.588Z" fill="#181938" mask="url(#path-23-inside-4_402_3)"/>
<mask id="path-25-inside-5_402_3" fill="white">
<path d="M152.846 587.725C107.944 618.271 38.75 554.344 44.3009 494.369C92.3366 487.749 152.83 519.33 158.319 582.116"/>
</mask>
<path d="M152.846 587.725C107.944 618.271 38.75 554.344 44.3009 494.369C92.3366 487.749 152.83 519.33 158.319 582.116" fill="#FCC65D"/>
<path d="M44.3009 494.369L43.8765 491.151L41.8054 491.436L41.5784 493.889L44.3009 494.369ZM151.41 584.9C130.244 599.299 102.95 591.64 81.2365 572.426C59.5203 553.209 44.3913 523.289 47.0234 494.85L41.5784 493.889C38.6596 525.425 55.3523 557.456 78.0709 577.559C100.792 597.666 130.546 606.698 154.282 590.55L151.41 584.9ZM44.7253 497.588C68.1801 494.355 94.704 500.465 115.967 515.004C137.185 529.513 152.965 552.244 155.595 582.32L161.043 581.911C158.183 549.202 140.972 524.749 118.562 509.426C96.1979 494.133 68.4573 487.763 43.8765 491.151L44.7253 497.588Z" fill="#181938" mask="url(#path-25-inside-5_402_3)"/>
<mask id="path-27-inside-6_402_3" fill="white">
<path d="M166.881 587.725C211.782 618.271 280.977 554.344 275.426 494.369C227.39 487.749 166.897 519.33 161.408 582.116"/>
</mask>
<path d="M166.881 587.725C211.782 618.271 280.977 554.344 275.426 494.369C227.39 487.749 166.897 519.33 161.408 582.116" fill="#FCC65D"/>
<path d="M275.426 494.369L275.85 491.151L277.921 491.436L278.148 493.889L275.426 494.369ZM168.317 584.9C189.482 599.299 216.777 591.64 238.49 572.426C260.206 553.209 275.335 523.289 272.703 494.85L278.148 493.889C281.067 525.425 264.374 557.456 241.656 577.559C218.934 597.666 189.181 606.698 165.445 590.55L168.317 584.9ZM275.001 497.588C251.546 494.355 225.023 500.465 203.76 515.004C182.542 529.513 166.761 552.244 164.132 582.32L158.684 581.911C161.544 549.202 178.754 524.749 201.164 509.426C223.529 494.133 251.269 487.763 275.85 491.151L275.001 497.588Z" fill="#181938" mask="url(#path-27-inside-6_402_3)"/>
</svg>
