<svg width="324" height="483" viewBox="0 0 324 483" fill="none" xmlns="http://www.w3.org/2000/svg">
<path d="M242.518 79.5152C349.419 -25.6749 349.419 160.096 242.518 159.133C349.419 160.096 349.419 342.496 242.518 237.306C349.419 342.496 162.347 342.496 162.347 237.306C162.347 342.496 -24.7254 342.496 82.1763 237.306C-24.7254 342.496 -24.7254 151.015 82.1763 155.248C-24.7254 151.027 -24.7254 -19.4609 82.1763 82.18C-24.7254 -19.4609 154.742 -22.4391 159.092 80.9036C154.742 -22.4391 349.431 -25.6749 242.529 79.5152H242.518Z" fill="#FCC65D"/>
<path d="M242.518 79.5152C349.419 -25.6749 349.419 160.096 242.518 159.133C349.419 160.096 349.419 342.496 242.518 237.306C349.419 342.496 162.347 342.496 162.347 237.306C162.347 342.496 -24.7254 342.496 82.1763 237.306C-24.7254 342.496 -24.7254 151.015 82.1763 155.248C-24.7254 151.027 -24.7254 -19.4609 82.1763 82.18C-24.7254 -19.4609 154.742 -22.4391 159.092 80.9036C154.742 -22.4391 349.431 -25.6749 242.529 79.5152H242.518Z" stroke="#181938" stroke-width="2.5" stroke-miterlimit="10"/>
<path d="M185.386 178.234C188.339 176.958 196.034 173.621 201.94 176.443C209.221 179.914 212.129 191.961 209.813 200.706C204.68 220.031 173.52 224.767 170.019 225.293C145.077 229.077 124.934 217.411 117.25 212.35C101.57 204.311 102.263 176.197 122.138 175.771C135.023 177.921 143.031 193.103 157.928 189.879C161.429 189.789 166.798 189.207 172.48 186.441C178.43 183.553 179.548 180.787 185.386 178.246V178.234Z" fill="white"/>
<path d="M186.135 179.5C187.836 178.705 186.359 176.186 184.67 176.981C177.367 180.407 172.3 186.094 164.012 187.752C157.134 189.129 150.401 189.453 144.082 186.061C135.268 181.325 126.779 171.382 115.863 175.469C101.111 180.966 102.363 202.486 113.045 211.286C128.367 223.927 151.307 229.626 170.645 226.67C184.01 224.632 200.206 219.717 208.135 207.927C213.269 200.28 213.403 189.207 208.829 181.246C203.416 171.853 193.361 173.241 184.681 176.969C182.959 177.708 184.447 180.216 186.147 179.489C192.343 176.835 200.217 174.719 205.071 180.922C208.505 185.311 209.601 191.536 209.041 196.977C208.024 206.819 200.228 213.279 191.862 217.332C178.508 223.804 162.413 226.178 147.862 223.434C139.015 221.766 130.526 218.474 122.719 213.996C116.467 210.402 110.875 206.752 108.694 199.441C106.681 192.723 107.765 184.157 113.805 179.802C121.959 173.935 129.844 180.127 137.058 185.076C144.272 190.024 150.289 192.163 159.035 191.278C164.001 190.786 168.587 189.957 173.217 187.684C177.848 185.411 181.449 181.683 186.124 179.489V179.466L186.135 179.5Z" fill="#181938"/>
<path d="M158.488 190.427C159.629 202.34 159.864 214.332 161.966 226.133C162.302 227.98 165.109 227.196 164.774 225.349C162.716 213.806 162.503 202.072 161.396 190.427C161.217 188.569 158.298 188.558 158.477 190.427H158.488Z" fill="#181938"/>
<path d="M133.792 182.287C131.51 194.278 129.531 206.303 128.792 218.496C128.68 220.377 131.588 220.366 131.711 218.496C132.427 206.561 134.373 194.804 136.61 183.059C136.957 181.223 134.15 180.44 133.803 182.276L133.792 182.287Z" fill="#181938"/>
<path d="M183.272 160.735C209.253 81.5536 150.277 66.293 168.296 157.432C170.958 157.745 174.425 158.473 178.116 160.231C179.469 160.869 180.677 161.574 181.739 162.268L183.272 160.735Z" fill="white"/>
<path d="M181.001 163.511C182.601 164.518 184.055 161.988 182.467 160.991C178.116 158.248 173.385 156.625 168.285 155.964L169.694 157.039C166.886 142.652 164.728 127.189 167.278 112.578C168.161 107.529 169.839 99.5903 175.018 97.0376C178.999 95.0894 182.377 98.8514 184.167 102.02C188.059 108.928 188.674 117.583 188.495 125.331C188.361 131.455 187.555 137.557 186.348 143.547C185.665 146.895 184.849 150.232 183.92 153.523C183.149 156.334 182.757 159.178 180.699 161.226C179.368 162.559 181.426 164.63 182.757 163.287C185.33 160.7 185.878 157.353 186.84 153.882C187.992 149.739 188.965 145.54 189.714 141.308C190.922 134.489 191.615 127.537 191.358 120.606C191.067 112.914 189.815 104.002 184.815 97.8101C181.784 94.0369 176.953 92.1447 172.635 95.067C166.763 99.0529 164.963 107.685 164.079 114.19C162.099 128.667 164.079 143.603 166.875 157.834C167.009 158.506 167.681 158.83 168.285 158.909C172.859 159.48 177.109 161.081 181.001 163.533V163.511Z" fill="#181938"/>
<path d="M181.081 181.167C184.682 193.584 187.4 206.259 191.952 218.384C192.601 220.131 195.431 219.37 194.76 217.6C190.219 205.475 187.49 192.789 183.888 180.384C183.363 178.581 180.555 179.354 181.081 181.167Z" fill="#181938"/>
<path d="M141.554 160.879C111.759 83.0533 169.907 64.9375 156.351 156.849C153.69 157.285 150.278 158.192 146.677 160.118C145.357 160.835 144.172 161.585 143.154 162.335L141.554 160.879Z" fill="white"/>
<path d="M142.438 161.081C140.906 162.156 142.371 164.687 143.903 163.601C147.807 160.869 152.068 159.1 156.754 158.271C157.202 158.193 157.705 157.7 157.772 157.252C160.009 141.812 161.519 125.231 157.683 109.903C156.24 104.17 153.522 96.2879 147.393 94.0151C142.36 92.1565 138.02 95.8625 135.694 100.028C131.5 107.518 131.108 117.012 131.656 125.365C132.07 131.836 133.211 138.274 134.81 144.567C135.772 148.385 136.924 152.158 138.199 155.875C139.206 158.82 139.821 161.272 142.125 163.366C143.512 164.631 145.581 162.571 144.183 161.305C141.722 159.077 141.074 155.416 140.056 152.281C138.893 148.642 137.852 144.959 136.991 141.23C135.537 134.882 134.553 128.399 134.419 121.883C134.273 114.784 134.844 106.589 138.837 100.464C140.939 97.2284 144.44 95.0675 147.963 97.6091C153.22 101.393 154.886 109.623 155.86 115.557C158.085 129.015 156.888 143.066 154.942 156.469L155.96 155.45C151.05 156.323 146.498 158.215 142.405 161.081H142.427H142.438Z" fill="#181938"/>
<path d="M180.857 128.645C180.857 121.838 177.546 116.329 173.453 116.329C169.359 116.329 166.048 121.849 166.048 128.645C166.048 135.441 169.359 140.961 173.453 140.961C177.546 140.961 180.857 135.441 180.857 128.645Z" fill="#181938"/>
<path d="M148.421 128.824C148.421 122.016 145.11 116.508 141.017 116.508C136.923 116.508 133.612 122.028 133.612 128.824C133.612 135.62 136.923 141.14 141.017 141.14C145.11 141.14 148.421 135.62 148.421 128.824Z" fill="#181938"/>
<path d="M182.479 121.189C182.479 118.502 180.298 116.318 177.614 116.318C174.93 116.318 172.749 118.502 172.749 121.189C172.749 123.876 174.93 126.059 177.614 126.059C180.298 126.059 182.479 123.876 182.479 121.189Z" fill="white"/>
<path d="M150.548 122.331C150.548 119.644 148.367 117.461 145.683 117.461C142.998 117.461 140.818 119.644 140.818 122.331C140.818 125.019 142.998 127.202 145.683 127.202C148.367 127.202 150.548 125.019 150.548 122.331Z" fill="white"/>
<path d="M162 252V484" stroke="#181938" stroke-width="3"/>
</svg>
