<svg width="711" height="934" viewBox="0 0 711 934" fill="none" xmlns="http://www.w3.org/2000/svg">
<g clip-path="url(#clip0_0_630)">
<path d="M427.683 545.592C426.793 547.911 423.367 548.753 420.03 547.473C416.692 546.192 414.708 543.274 415.598 540.956C416.488 538.637 419.914 537.795 423.251 539.075C426.588 540.355 428.572 543.273 427.683 545.592Z" fill="#FFFCF5"/>
<path d="M478.651 563.693C473.079 578.217 457.181 585.624 443.142 580.238C429.103 574.851 422.239 558.711 427.811 544.188C433.384 529.665 449.281 522.258 463.32 527.644C477.359 533.03 484.223 549.17 478.651 563.693Z" fill="#FFFCF5"/>
<path d="M476.665 532.978C501.07 548.435 472.324 609.154 444.772 589.733L476.665 532.978Z" fill="#FFFCF5"/>
<path d="M477.434 531.922C488.173 538.996 488.53 553.266 485.465 564.51C482.274 576.226 474.399 589.612 462.255 593.729C455.872 595.892 449.468 594.516 443.991 590.774C442.601 589.831 444.154 587.725 445.541 588.677C459.497 598.196 473.12 585.711 479.325 573.278C485.16 561.588 488.792 542.531 475.88 534.028C474.481 533.109 476.027 531 477.431 531.93L477.434 531.922Z" fill="#181938"/>
<path d="M436.97 563.736C426.473 573.078 424.769 574.241 424.769 574.241C420.422 580.083 425.632 588.455 432.022 590.012C442.998 592.173 454.546 585.75 462.838 578.999" fill="#FFFCF5"/>
<path d="M437.781 564.755C434.177 567.957 430.393 570.995 426.85 574.257C424.403 576.505 423.805 579.424 425.315 582.724C432.097 597.541 453.949 584.44 462.016 577.985C463.332 576.934 464.965 578.968 463.649 580.018C454.24 587.542 432.369 599.965 423.597 585.018C417.521 574.675 429.68 568.458 436.143 562.711C437.398 561.599 439.031 563.633 437.776 564.744L437.781 564.755Z" fill="#181938"/>
<path d="M427.85 545.181C394.864 555.026 414.789 585.44 442.263 567.593L427.85 545.181Z" fill="#FFFCF5"/>
<path d="M428.38 546.372C420.807 548.749 407.022 556.122 413.51 566.093C419.998 576.063 433.77 571.397 441.449 566.582C442.857 565.706 444.504 567.726 443.082 568.616C434.052 574.281 418.4 578.506 411.285 567.447C404.171 556.388 418.047 546.908 427.327 543.993C428.916 543.494 429.989 545.871 428.388 546.375L428.38 546.372Z" fill="#181938"/>
<path d="M417.381 545.804C411.183 543.091 410.26 533.597 416.6 530.477C421.439 527.311 427.432 529.126 432.711 527.313C441.952 520.834 454.578 515.122 464.55 524.1L465.673 523.599C466.233 514.274 470.166 505.041 466.302 495.881C459.332 478.058 435.082 471.232 418.709 478.161C417.311 478.501 414.14 479.045 411.269 477.422C406.193 474.552 404.599 466.347 408.041 460.969C411.341 455.816 417.839 455.514 418.553 455.499C443.772 450.501 469.032 461.469 481.267 482.299C496.867 508.856 482.818 536.95 481.906 538.697" fill="#FFFCF5"/>
<path d="M416.913 547.022C407.768 542.302 410.086 530.456 419.481 527.799C422.208 527.029 425.045 527.139 427.843 526.889C431.26 526.579 433.47 525.117 436.326 523.427C441.419 520.424 447.233 517.997 453.253 518.163C456.011 518.234 458.709 518.924 461.17 520.185C462.252 520.74 463.179 521.627 464.249 522.14C464.413 522.222 464.206 523.223 464.851 522.538C464.536 522.874 464.684 520.276 464.707 520.145C465.651 512.755 468.059 505.07 465.617 497.714C461.38 484.983 448.116 477.789 435.33 476.899C432.272 476.685 429.205 476.813 426.191 477.333C423.178 477.854 420.637 479.181 417.78 479.659C413.014 480.449 408.57 478.24 406.391 473.939C404.055 469.343 404.46 463.285 407.695 459.224C410.253 456.004 414.052 454.797 417.951 454.225C430.967 452.306 443.647 452.866 455.847 458.245C467.304 463.303 477.035 471.937 483.126 482.919C492.471 499.772 491.945 522.098 483.127 539.156C482.365 540.634 479.922 539.715 480.691 538.221C494.229 512.018 486.385 478.552 460.394 463.465C451.829 458.493 441.991 455.846 432.106 455.603C425.007 455.432 411.281 455.318 408.203 463.556C406.196 468.935 408.637 476.682 415.096 477.185C418.932 477.483 423.035 475.116 426.868 474.574C434.35 473.504 442.205 474.57 449.16 477.519C456.727 480.72 463.298 486.25 466.826 493.762C471.45 503.614 467.763 513.491 466.982 523.71C466.945 524.171 466.634 524.592 466.21 524.774L465.086 525.275C464.682 525.455 464.132 525.431 463.779 525.137C458.981 521.106 453.446 519.942 447.382 521.445C444.665 522.117 442.064 523.262 439.591 524.558C437.417 525.709 435.465 527.494 433.24 528.485C428.883 530.419 423.721 528.914 419.267 530.568C412.964 532.911 411.252 541.161 417.846 544.567C419.324 545.329 418.405 547.772 416.912 547.003L416.913 547.022Z" fill="#181938"/>
<path d="M437.246 535.407C430.841 538.307 426.816 546.369 430.147 552.938C430.903 554.44 428.524 555.493 427.765 553.999C423.786 546.156 428.538 536.492 436.188 533.017C437.722 532.32 438.783 534.702 437.249 535.399L437.246 535.407Z" fill="#181938"/>
<path d="M417.984 544.694C418.797 545.416 419.827 545.839 420.752 546.39C421.359 546.753 421.419 547.689 421.029 548.219C420.58 548.83 419.813 548.862 419.199 548.496C418.277 547.937 417.244 547.522 416.43 546.8C415.904 546.328 415.706 545.581 416.154 544.97C416.544 544.44 417.449 544.219 417.984 544.694Z" fill="#181938"/>
<mask id="mask0_0_630" style="mask-type:luminance" maskUnits="userSpaceOnUse" x="120" y="357" width="592" height="578">
<path d="M279.15 357.555L120.148 766.321L552.025 934.052L711.026 525.286L279.15 357.555Z" fill="white"/>
</mask>
<g mask="url(#mask0_0_630)">
<path d="M318.88 593.657C318.88 593.657 316.496 605.019 312.78 622.698C300.684 623.38 288.598 624.052 276.513 624.723C272.523 634.26 274.371 647.878 281.595 655.055C290.436 653.324 298.164 659.703 301.818 667.12L300.411 665.809C303.96 673.468 294.037 684.495 292.515 693.014L172.92 713.62C174.978 699.32 174.453 682.061 185.027 670.929C202.698 647.417 237.495 639.149 258.694 662.64L259.282 662.105C252.247 644.164 249.402 622.216 262.254 606.174C272.901 595.881 282.372 592.681 289.176 591.695C301.692 589.89 318.796 593.657 318.869 593.667H318.88V593.657Z" fill="#FFFCF6"/>
<path d="M318.733 595.01C320.455 595.367 320.717 592.639 319.006 592.282C302.532 588.893 285.469 587.897 270.843 597.444C260.301 604.327 253.98 614 252.363 626.57C250.777 638.834 253.633 651.215 258.012 662.619L258.421 660.993L257.833 661.528L259.755 661.748C245.002 645.874 222.648 643.398 203.717 653.261C194.351 658.129 185.688 665.987 180.134 675C173.078 686.425 173.298 700.579 171.545 713.442C171.419 714.312 172.269 715.078 173.12 714.931C178.055 714.081 183 713.232 187.935 712.382C222.858 706.37 257.77 700.306 292.714 694.336C293.365 694.231 293.733 693.738 293.859 693.129C295.791 684.106 305.388 674.905 301.639 665.242L299.571 666.9L300.978 668.211C301.975 669.135 303.666 667.729 303.046 666.564C300.222 661.192 295.906 656.377 290.016 654.341C288.661 653.869 287.223 653.565 285.795 653.449C284.671 653.355 282.834 653.838 281.826 653.334C279.106 651.981 277.332 645.748 276.67 643.063C275.778 639.453 275.557 635.676 276.009 631.983C276.177 630.619 276.292 627.209 277.321 626.339C278.592 625.258 282.382 625.751 283.947 625.667C293.628 625.122 303.288 624.587 312.958 624.051C313.599 624.02 313.987 623.391 314.103 622.845C316.139 613.161 318.176 603.488 320.203 593.804C320.57 592.083 317.84 591.821 317.483 593.531C315.446 603.215 313.41 612.888 311.383 622.572L312.528 621.366C300.432 622.048 288.346 622.719 276.261 623.39C275.799 623.422 275.358 623.831 275.2 624.251C271.914 632.707 272.323 642.842 276.733 650.848C277.605 652.432 278.896 655.034 280.482 655.926C282.067 656.817 283.621 656.051 285.511 656.209C292.315 656.775 297.502 661.948 300.537 667.697L302.605 666.05L301.198 664.739C300.127 663.742 298.668 665.232 299.13 666.386C302.374 674.79 292.851 684.83 291.129 692.899L292.273 691.692C287.328 692.542 282.393 693.392 277.447 694.252C242.524 700.264 207.591 706.286 172.668 712.308L174.243 713.798C175.829 702.247 175.682 689.73 181.005 679.081C185.657 669.785 194.666 661.423 203.696 656.44C221.619 646.556 243.322 648.183 257.581 663.532C258.064 664.036 258.936 664.267 259.503 663.752L260.091 663.217C260.574 662.787 260.731 662.189 260.5 661.591C256.3 650.627 253.528 638.709 255.061 626.916C256.762 613.874 264.112 604.138 275.526 597.843C288.798 590.53 304.369 592.135 318.691 595.073V595.052L318.733 595.01Z" fill="#181938"/>
</g>
<mask id="mask1_0_630" style="mask-type:luminance" maskUnits="userSpaceOnUse" x="-66" y="357" width="592" height="577">
<path d="M366.754 357.484L-65.1221 525.215L93.8796 933.981L525.756 766.25L366.754 357.484Z" fill="white"/>
</mask>
<g mask="url(#mask1_0_630)">
<path d="M326.996 593.668C327.07 593.668 344.174 589.891 356.69 591.695C363.494 592.682 372.965 595.882 383.612 606.174C396.453 622.216 393.619 644.165 386.584 662.106L387.172 662.641C408.371 639.15 443.168 647.417 460.839 670.929C471.412 682.061 470.888 699.32 472.946 713.62L353.351 693.015C351.829 684.495 341.906 673.479 345.455 665.809L344.048 667.121C347.713 659.703 355.43 653.335 364.271 655.055C371.495 647.879 373.343 634.271 369.353 624.724C357.268 624.052 345.172 623.381 333.086 622.699C329.369 605.02 326.986 593.668 326.986 593.657H326.996V593.668Z" fill="#FFFCF6"/>
<path d="M327.133 595.032C341.455 592.094 357.026 590.489 370.298 597.802C381.722 604.097 389.062 613.833 390.763 626.874C392.296 638.667 389.534 650.586 385.324 661.55C385.082 662.148 385.25 662.746 385.733 663.176L386.321 663.711C386.899 664.235 387.77 664.005 388.243 663.491C402.512 648.141 424.205 646.515 442.128 656.398C451.158 661.382 460.167 669.744 464.819 679.039C470.142 689.689 469.995 702.205 471.581 713.757L473.156 712.267C438.233 706.245 403.299 700.233 368.377 694.211C363.442 693.361 358.507 692.5 353.551 691.651L354.695 692.857C352.973 684.789 343.45 674.748 346.694 666.344C347.146 665.19 345.697 663.7 344.626 664.697L343.219 666.009L345.287 667.656C348.322 661.906 353.498 656.734 360.313 656.167C362.203 656.01 363.757 656.776 365.342 655.884C366.928 654.992 368.219 652.39 369.091 650.806C373.501 642.801 373.91 632.666 370.624 624.209C370.466 623.79 370.025 623.38 369.563 623.349C357.478 622.678 345.382 622.006 333.296 621.324L334.441 622.531C332.414 612.847 330.377 603.173 328.34 593.489C327.983 591.779 325.253 592.041 325.621 593.762C327.647 603.446 329.684 613.119 331.721 622.803C331.837 623.359 332.225 623.979 332.866 624.01C342.536 624.556 352.207 625.091 361.877 625.626C363.452 625.71 367.232 625.206 368.503 626.297C369.532 627.168 369.647 630.578 369.815 631.942C370.267 635.635 370.046 639.412 369.154 643.021C368.492 645.717 366.718 651.95 363.998 653.293C363.001 653.786 361.153 653.314 360.029 653.408C358.601 653.523 357.163 653.838 355.808 654.3C349.918 656.335 345.602 661.14 342.778 666.523C342.169 667.687 343.849 669.104 344.846 668.17L346.253 666.858L344.185 665.201C340.436 674.874 350.033 684.065 351.965 693.088C352.091 693.696 352.459 694.19 353.11 694.294C388.043 700.275 422.966 706.329 457.889 712.34C462.824 713.19 467.769 714.04 472.704 714.89C473.555 715.037 474.405 714.271 474.279 713.4C472.515 700.537 472.735 686.384 465.69 674.958C460.136 665.956 451.473 658.098 442.107 653.219C423.165 643.346 400.811 645.833 386.069 661.707L387.991 661.487L387.403 660.952L387.812 662.578C392.191 651.173 395.046 638.782 393.461 626.528C391.844 613.969 385.523 604.285 374.981 597.403C360.365 587.855 343.303 588.852 326.818 592.241C325.106 592.598 325.369 595.315 327.091 594.969V594.99L327.133 595.032Z" fill="#181938"/>
</g>
<mask id="mask2_0_630" style="mask-type:luminance" maskUnits="userSpaceOnUse" x="-86" y="-1" width="602" height="613">
<path d="M124.419 -0.0146201L-85.0005 412.99L306.511 611.204L515.931 198.199L124.419 -0.0146201Z" fill="white"/>
</mask>
<g mask="url(#mask2_0_630)">
<path d="M362.234 369.017C381.764 327.092 411.951 286.541 458.015 272.608C459.705 272.094 458.844 269.492 457.164 270.006C425.37 279.627 400.16 302.206 381.554 329.18C373.144 341.371 366.035 354.381 359.788 367.79C359.042 369.385 361.489 370.623 362.234 369.028V369.017Z" fill="#181938"/>
<path d="M457.7 270.006C458.036 259.22 475.129 252.695 483.487 259.157C479.224 268.327 467.916 276.238 457.941 271.485" fill="#FCC65D"/>
<path d="M459.054 270.279C459.884 260.091 474.499 254.531 482.574 260.175L482.28 258.539C478.08 267.047 468.294 274.434 458.582 270.268C456.965 269.576 455.726 272.01 457.343 272.713C468.462 277.487 479.812 269.744 484.726 259.787C484.968 259.304 484.905 258.497 484.432 258.15C474.867 251.457 457.395 257.206 456.377 269.744C456.24 271.475 458.918 272.041 459.065 270.289L459.054 270.279Z" fill="#181938"/>
<path d="M378.53 332.589C367.726 332.453 360.911 315.488 367.222 307.021C376.472 311.113 384.589 322.266 380.021 332.317" fill="#FCC65D"/>
<path d="M378.446 331.215C367.988 330.554 363.095 315.561 368.44 307.629L366.602 308.227C375.181 312.267 382.804 321.898 378.803 331.687C378.142 333.313 380.578 334.562 381.25 332.925C385.817 321.73 377.921 310.536 367.841 305.793C367.106 305.447 366.424 305.762 366.004 306.391C359.326 316.296 366.298 333.166 378.625 333.943C380.378 334.058 380.2 331.32 378.467 331.215H378.446Z" fill="#181938"/>
<path d="M405.189 299.132C395.403 294.568 396.17 276.301 405.399 271.171C412.151 278.704 414.954 292.207 406.649 299.488" fill="#FCC65D"/>
<path d="M405.809 297.914C396.632 293.099 397.881 277.403 406.134 272.325L404.475 272.189C410.702 279.543 413.243 291.263 405.641 298.565C404.36 299.792 406.407 301.618 407.667 300.411C416.435 291.987 413.474 278.599 406.313 270.164C405.924 269.702 405.116 269.744 404.654 270.027C394.584 276.207 393.577 294.578 404.57 300.348C406.134 301.167 407.373 298.722 405.809 297.904V297.914Z" fill="#181938"/>
<path d="M380.179 333.104C388.337 326.022 404.727 334.142 405.651 344.655C396.023 347.761 382.531 344.833 379.255 334.289" fill="#FCC65D"/>
<path d="M380.914 334.258C388.967 327.868 403.005 335.024 404.276 344.749L405.21 343.365C396.044 346.061 384.095 343.826 380.536 333.869C379.948 332.212 377.333 333.051 377.932 334.719C382.016 346.124 395.393 349.093 406.061 345.967C406.607 345.799 407.079 345.169 406.995 344.582C405.483 333.02 389.188 324.207 379.412 331.96C378.037 333.051 379.507 335.359 380.893 334.258H380.914Z" fill="#181938"/>
<path d="M439.64 275.63C433.151 267.006 442.422 251.236 452.985 251.058C455.4 260.878 451.515 274.109 440.763 276.637" fill="#FCC65D"/>
<path d="M440.795 274.885C434.967 266.334 443.357 253.009 453.08 252.422L451.694 251.488C453.752 260.857 450.507 272.514 440.343 275.336C438.642 275.808 439.503 278.41 441.194 277.938C452.87 274.696 456.66 261.413 454.287 250.628C454.161 250.04 453.468 249.652 452.901 249.694C441.162 250.407 431.481 266.114 438.485 276.375C439.482 277.833 441.782 276.343 440.784 274.885H440.795Z" fill="#181938"/>
<path d="M420.771 287.108C412.833 279.774 419.133 262.609 429.497 260.542C433.634 269.765 432.185 283.488 422.052 287.895" fill="#FCC65D"/>
<path d="M421.685 286.09C414.356 278.683 420.561 264.12 429.917 261.844L428.195 260.973C431.943 269.996 430.998 282.019 421.307 286.751C419.721 287.528 421.223 289.815 422.798 289.049C433.529 283.814 434.988 270.195 430.799 260.113C430.505 259.389 429.843 259.053 429.077 259.242C417.579 262.043 411.164 279.344 419.858 288.126C421.107 289.385 422.934 287.349 421.706 286.101L421.685 286.09Z" fill="#181938"/>
<path d="M390.836 315.373C380.263 313.117 376.903 295.155 384.757 288.083C393.031 293.896 398.795 306.434 392.348 315.394" fill="#FCC65D"/>
<path d="M391.109 314.03C381.05 311.375 378.908 295.774 385.765 289.007L383.822 289.101C391.655 294.903 397.041 305.794 391.12 314.775C390.154 316.244 392.6 317.471 393.566 316.013C400.128 306.088 394.416 293.56 385.681 287.066C385.061 286.615 384.316 286.594 383.738 287.16C375.296 295.491 378.572 313.537 390.563 316.716C392.264 317.167 392.81 314.481 391.109 314.03Z" fill="#181938"/>
<path d="M394.028 316.159C402.438 309.382 418.514 318.079 419.07 328.624C409.337 331.383 395.96 327.963 393.062 317.303" fill="#FCC65D"/>
<path d="M394.763 317.303C403.068 311.187 416.781 318.992 417.695 328.697L418.629 327.312C409.347 329.684 397.545 326.935 394.353 316.873C393.818 315.184 391.214 316.044 391.749 317.723C395.424 329.274 408.738 332.653 419.49 329.914C420.057 329.768 420.488 329.107 420.425 328.53C419.322 316.884 403.299 307.609 393.272 314.995C391.855 316.034 393.335 318.342 394.763 317.293V317.303Z" fill="#181938"/>
<path d="M408.087 300.233C416.666 293.675 432.521 302.782 432.804 313.337C423.008 315.845 409.715 312.078 407.09 301.366" fill="#FCC65D"/>
<path d="M408.843 301.387C417.338 295.491 430.767 303.706 431.45 313.421L432.384 312.036C423.039 314.177 411.321 311.061 408.402 300.936C407.909 299.236 405.305 300.097 405.798 301.786C409.148 313.432 422.472 317.104 433.235 314.638C433.812 314.502 434.211 313.809 434.18 313.253C433.371 301.545 417.569 291.987 407.352 299.079C405.903 300.086 407.384 302.394 408.843 301.377V301.387Z" fill="#181938"/>
<path d="M425.223 287.968C434.253 282.051 449.405 292.301 448.911 302.846C438.957 304.619 425.979 299.908 424.152 289.017" fill="#FCC65D"/>
<path d="M425.979 289.112C434.946 283.813 447.599 293.277 447.557 302.919L448.838 301.471C439.209 302.94 427.67 299.11 425.454 288.576C425.097 286.845 422.493 287.716 422.85 289.426C425.297 301.083 438.222 305.846 448.995 304.199C449.762 304.083 450.276 303.548 450.287 302.751C450.329 290.927 435.146 280.508 424.488 286.803C422.966 287.706 424.457 290.003 425.979 289.101V289.112Z" fill="#181938"/>
<path d="M442.496 278.221C451.274 271.926 466.845 281.516 466.793 292.07C456.923 294.274 443.756 290.119 441.456 279.312" fill="#FCC65D"/>
<path d="M443.241 279.365C451.935 273.71 465.05 282.449 465.428 292.144L466.362 290.759C456.933 292.616 445.362 289.08 442.758 278.882C442.328 277.172 439.724 278.032 440.154 279.732C443.157 291.483 456.398 295.49 467.213 293.361C467.8 293.245 468.179 292.532 468.147 291.976C467.696 280.214 452.135 270.289 441.74 277.056C440.259 278.011 441.74 280.319 443.231 279.354L443.241 279.365Z" fill="#181938"/>
</g>
<mask id="mask3_0_630" style="mask-type:luminance" maskUnits="userSpaceOnUse" x="-86" y="139" width="509" height="528">
<path d="M348.271 139.832L-85.0046 209.798L-11.0831 666.86L422.193 596.894L348.271 139.832Z" fill="white"/>
</mask>
<g mask="url(#mask3_0_630)">
<path d="M321.232 377.075C312.328 331.698 312.853 281.159 341.885 242.801C342.956 241.395 340.72 239.79 339.67 241.196C319.636 267.667 312.549 300.747 313.389 333.492C313.777 348.296 315.677 362.995 318.523 377.505C318.859 379.236 321.568 378.796 321.232 377.065V377.075Z" fill="#181938"/>
<path d="M340.1 240.891C334.01 231.973 343.996 216.655 354.559 216.96C356.512 226.874 352.028 239.926 341.171 241.951" fill="#FCC65D"/>
<path d="M341.35 240.314C336.016 231.585 344.563 218.492 354.412 218.313L353.204 217.17C354.821 226.528 351.262 238.248 340.951 240.587C339.239 240.975 339.67 243.682 341.392 243.294C353.194 240.608 357.803 227.682 355.913 216.739C355.829 216.204 355.304 215.585 354.706 215.596C343.03 215.806 332.299 230.735 338.851 241.458C339.754 242.937 342.263 241.825 341.339 240.314H341.35Z" fill="#181938"/>
<path d="M312.948 338.046C304.128 344.288 288.63 334.583 288.745 324.029C298.636 321.899 311.761 326.148 313.998 336.954" fill="#FCC65D"/>
<path d="M312.076 336.986C303.235 342.599 290.446 333.356 290.1 323.798L288.966 325.371C298.279 323.588 310.113 326.903 312.643 337.164C313.063 338.864 315.772 338.444 315.352 336.724C312.454 324.983 299.476 320.577 288.535 322.665C287.737 322.822 287.37 323.472 287.401 324.238C287.832 336.178 303.414 345.705 313.83 339.095C315.31 338.15 313.557 336.042 312.087 336.986H312.076Z" fill="#181938"/>
<path d="M314.796 295.323C304.191 297.39 294.058 282.166 298.5 272.598C308.391 274.717 318.617 283.981 316.192 294.756" fill="#FCC65D"/>
<path d="M314.575 293.97C304.317 295.47 296.085 282.051 299.77 273.091L298.342 273.962C307.719 276.249 316.664 284.223 314.816 294.61C314.501 296.351 317.231 296.635 317.536 294.914C319.657 282.943 309.388 273.867 298.626 271.255C298.038 271.108 297.408 271.622 297.198 272.126C292.704 283.037 302.7 298.492 314.995 296.687C316.738 296.435 316.307 293.728 314.554 293.98L314.575 293.97Z" fill="#181938"/>
<path d="M314.575 337.489C317 326.966 335.039 323.892 341.98 331.855C336.026 340.028 323.395 345.589 314.533 339" fill="#FCC65D"/>
<path d="M315.856 337.993C318.607 328.089 334.168 325.623 340.919 332.737L340.856 331.069C335.029 338.633 324.056 343.858 315.321 337.899C313.861 336.902 312.255 339.126 313.714 340.112C323.731 346.922 336.299 341.466 343.082 332.663C343.429 332.212 343.439 331.415 343.019 330.995C334.987 322.539 316.622 324.983 313.284 337.007C312.811 338.696 315.363 339.693 315.835 337.993H315.846H315.856Z" fill="#181938"/>
<path d="M328.813 256.063C318.481 252.905 316.696 234.702 325.138 228.354C332.876 234.869 337.528 247.858 330.325 256.22" fill="#FCC65D"/>
<path d="M329.306 254.772C319.552 251.289 318.491 235.583 326.009 229.392L324.34 229.455C331.522 235.824 335.764 247.155 329.212 255.412C328.109 256.787 330.346 258.392 331.427 257.017C338.956 247.522 334.199 234.554 325.936 227.242C325.495 226.843 324.697 226.937 324.266 227.305C315.195 234.775 316.612 253.177 328.319 257.353C329.978 257.941 330.976 255.391 329.306 254.804V254.772Z" fill="#181938"/>
<path d="M320.308 276.438C309.577 275.179 304.558 257.594 311.719 249.831C320.497 254.856 327.406 266.806 321.809 276.322" fill="#FCC65D"/>
<path d="M320.455 275.074C310.176 273.395 306.606 257.972 312.832 250.628L310.921 250.932C319.269 256.021 325.579 266.302 320.539 275.819C319.72 277.371 322.282 278.347 323.09 276.805C328.676 266.26 321.841 254.394 312.528 248.708C311.856 248.299 311.131 248.414 310.617 249.012C302.973 258.035 307.971 275.798 320.171 277.78C321.914 278.064 322.198 275.346 320.476 275.063L320.455 275.074Z" fill="#181938"/>
<path d="M312.759 316.894C302.889 321.29 289.585 308.742 291.769 298.407C301.881 298.239 313.924 304.986 313.998 316.023" fill="#FCC65D"/>
<path d="M312.181 315.645C302.479 319.412 291.559 308.07 293.124 298.565L291.612 299.782C301.356 299.876 312.129 305.5 312.633 316.254C312.717 318.006 315.415 317.565 315.341 315.813C314.795 303.926 302.805 297.159 291.916 297.043C291.15 297.043 290.53 297.463 290.404 298.261C288.483 309.959 301.765 322.622 313.325 318.142C314.974 317.502 313.829 315.005 312.181 315.656V315.645Z" fill="#181938"/>
<path d="M315.804 315.646C318.607 305.217 336.73 302.804 343.387 310.998C337.139 318.951 324.308 324.05 315.688 317.146" fill="#FCC65D"/>
<path d="M317.074 316.139C320.182 306.308 335.869 304.556 342.326 311.868L342.263 310.2C336.152 317.576 324.991 322.287 316.486 316.034C315.058 314.984 313.452 317.209 314.88 318.247C324.655 325.424 337.412 320.325 344.489 311.795C344.857 311.344 344.815 310.557 344.426 310.127C336.677 301.356 318.261 303.286 314.502 315.152C313.966 316.831 316.528 317.817 317.053 316.139H317.074Z" fill="#181938"/>
<path d="M317.798 294.504C320.875 284.149 339.061 282.198 345.497 290.57C339.05 298.355 326.093 303.129 317.662 296.005" fill="#FCC65D"/>
<path d="M319.079 294.997C322.471 285.23 338.168 283.981 344.447 291.441L344.384 289.762C338.084 296.991 326.776 301.355 318.46 294.893C317.063 293.801 315.457 296.036 316.853 297.106C326.419 304.545 339.355 299.687 346.6 291.357C346.988 290.906 346.904 290.108 346.547 289.678C338.998 280.687 320.591 282.25 316.507 293.99C315.93 295.658 318.481 296.645 319.058 294.976H319.069L319.079 294.997Z" fill="#181938"/>
<path d="M324.424 274.507C328.235 264.403 346.526 263.795 352.333 272.608C345.329 279.9 332.068 283.708 324.172 275.986" fill="#FCC65D"/>
<path d="M325.705 275C329.831 265.442 345.634 265.652 351.283 273.479L351.472 271.559C344.552 278.41 332.971 282.103 324.98 274.885C323.668 273.699 322.082 275.934 323.374 277.099C332.215 285.083 345.466 281.337 353.215 273.668C353.761 273.122 353.866 272.388 353.404 271.737C346.474 262.148 328.057 262.662 323.153 274.014C322.45 275.63 325.012 276.616 325.705 275Z" fill="#181938"/>
<path d="M332.645 256.461C336.026 246.211 354.265 244.805 360.449 253.366C353.771 260.952 340.667 265.338 332.456 257.951" fill="#FCC65D"/>
<path d="M333.916 256.954C337.612 247.27 353.372 246.62 359.378 254.237L359.315 252.569C352.784 259.619 341.35 263.554 333.233 256.849C331.879 255.716 330.272 257.951 331.627 259.063C340.972 266.796 354.044 262.253 361.531 254.174C361.94 253.733 361.825 252.936 361.468 252.506C354.17 243.263 335.753 244.396 331.333 255.979C330.703 257.626 333.254 258.612 333.884 256.965L333.916 256.954Z" fill="#181938"/>
</g>
<mask id="mask4_0_630" style="mask-type:luminance" maskUnits="userSpaceOnUse" x="178" y="142" width="440" height="464">
<path d="M617.519 142.93H178.622V605.922H617.519V142.93Z" fill="white"/>
</mask>
<g mask="url(#mask4_0_630)">
<path d="M241.737 374.861C243.28 328.645 234.692 278.84 199.905 245.602C198.624 244.375 200.577 242.444 201.837 243.672C225.84 266.617 238.125 298.135 242.514 330.596C244.498 345.274 244.96 360.078 244.467 374.872C244.414 376.634 241.674 376.634 241.726 374.872L241.737 374.861Z" fill="#181938"/>
<path d="M201.365 243.42C205.953 233.642 193.647 220.107 183.273 222.101C182.927 232.204 189.437 244.364 200.483 244.637" fill="#FCC65D"/>
<path d="M200.042 243.053C203.916 233.589 193.385 222.027 183.63 223.412L184.638 222.09C184.533 231.585 189.93 242.591 200.472 243.252C202.226 243.357 202.236 246.095 200.472 245.99C188.397 245.225 181.772 233.19 181.898 222.09C181.898 221.555 182.318 220.863 182.906 220.768C194.466 219.121 207.444 232.141 202.688 243.777C202.026 245.382 199.38 244.679 200.052 243.042L200.042 243.053Z" fill="#181938"/>
<path d="M243.679 335.003C253.381 339.756 267.136 327.711 265.33 317.303C255.229 316.779 242.944 323.063 242.472 334.09" fill="#FCC65D"/>
<path d="M244.372 333.817C254.001 337.951 265.152 326.788 263.965 317.303L265.33 318.667C255.849 318.394 244.698 323.546 243.837 334.079C243.69 335.821 240.949 335.842 241.096 334.079C242.083 322.035 254.19 315.614 265.33 315.929C266.139 315.96 266.611 316.537 266.695 317.303C268.176 329.159 254.316 341.046 242.976 336.188C241.359 335.496 242.755 333.135 244.351 333.828L244.372 333.817Z" fill="#181938"/>
<path d="M235.027 293.119C245.821 293.466 253.402 276.826 247.48 268.086C238.051 271.758 229.442 282.533 233.558 292.784" fill="#FCC65D"/>
<path d="M235.028 291.756C245.391 291.598 251.376 277.046 246.304 268.789L247.848 269.419C238.965 273.164 231.395 282.471 234.881 292.427C235.469 294.096 232.812 294.809 232.245 293.162C228.234 281.684 236.928 271.087 247.134 266.785C247.69 266.544 248.394 266.953 248.677 267.415C254.862 277.477 247.449 294.316 235.028 294.505C233.264 294.536 233.264 291.798 235.028 291.766V291.756Z" fill="#181938"/>
<path d="M241.978 334.72C237.904 324.721 219.614 324.563 214.028 333.523C221.21 340.647 234.566 344.12 242.272 336.199" fill="#FCC65D"/>
<path d="M240.802 335.412C236.508 326.074 220.748 326.116 215.225 334.216L215.015 332.558C221.976 339.105 233.642 342.504 241.317 335.234C242.598 334.017 244.54 335.958 243.249 337.164C234.44 345.484 221.168 342.106 213.072 334.489C212.663 334.101 212.526 333.314 212.862 332.831C219.435 323.2 237.957 322.696 243.175 334.027C243.91 335.611 241.548 337.007 240.813 335.401L240.802 335.412Z" fill="#181938"/>
<path d="M214.931 256.598C224.622 251.835 223.478 233.579 214.133 228.658C207.539 236.328 205.019 249.883 213.471 256.997" fill="#FCC65D"/>
<path d="M214.238 255.412C223.31 250.418 221.85 234.743 213.44 229.833L215.099 229.623C209.03 237.051 206.646 248.918 214.437 256.021C215.739 257.206 213.797 259.137 212.505 257.951C203.559 249.778 206.184 236.223 213.177 227.682C213.555 227.221 214.353 227.179 214.836 227.472C224.979 233.4 226.523 251.792 215.634 257.783C214.091 258.633 212.705 256.272 214.259 255.423L214.238 255.412Z" fill="#181938"/>
<path d="M226.575 275.367C236.97 272.409 239.112 254.258 230.807 247.732C222.942 254.09 218.028 266.984 225.074 275.493" fill="#FCC65D"/>
<path d="M226.218 274.045C236.098 270.751 237.159 254.95 229.841 248.697H231.773C224.349 255.045 219.75 266.208 226.26 274.801C227.321 276.207 224.948 277.571 223.898 276.175C216.695 266.659 221.546 253.849 229.841 246.756C230.439 246.242 231.174 246.242 231.773 246.756C240.76 254.447 238.66 272.776 226.932 276.679C225.252 277.235 224.538 274.601 226.197 274.045H226.218Z" fill="#181938"/>
<path d="M240.487 314.093C250.935 316.862 262.065 302.352 258.253 292.5C248.247 293.948 237.432 302.531 239.133 313.432" fill="#FCC65D"/>
<path d="M240.855 312.771C251.029 314.942 259.996 302.006 256.941 292.868L258.631 293.822C249.024 295.47 239.29 302.741 240.508 313.432C240.708 315.173 237.967 315.163 237.768 313.432C236.403 301.618 247.165 293.015 257.896 291.168C258.652 291.042 259.324 291.357 259.587 292.123C263.346 303.37 252.258 317.985 240.13 315.404C238.408 315.037 239.133 312.393 240.865 312.771H240.855Z" fill="#181938"/>
<path d="M237.285 313.348C232.854 303.506 214.574 303.999 209.313 313.159C216.747 320.01 230.229 323 237.631 314.806" fill="#FCC65D"/>
<path d="M236.109 314.04C231.468 304.829 215.708 305.594 210.5 313.852L210.29 312.194C217.493 318.499 229.263 321.374 236.665 313.841C237.904 312.582 239.847 314.512 238.597 315.771C230.093 324.417 216.684 321.416 208.337 314.124C207.896 313.736 207.812 312.96 208.127 312.467C214.374 302.573 232.865 301.545 238.471 312.655C239.269 314.229 236.896 315.614 236.109 314.03V314.04Z" fill="#181938"/>
<path d="M231.941 292.794C227.258 283.068 208.988 284.034 203.969 293.319C211.571 299.981 225.126 302.625 232.319 294.253" fill="#FCC65D"/>
<path d="M230.754 293.487C225.851 284.39 210.153 285.66 205.145 294.022L204.935 292.364C212.306 298.502 224.171 301.009 231.353 293.298C232.56 291.997 234.492 293.948 233.285 295.228C225.032 304.104 211.487 301.366 203.003 294.295C202.551 293.906 202.499 293.12 202.793 292.637C208.809 282.565 227.237 281.169 233.138 292.112C233.977 293.665 231.615 295.05 230.775 293.487H230.754Z" fill="#181938"/>
<path d="M222.207 274.108C216.831 264.75 198.677 267.058 194.351 276.679C202.425 282.753 216.138 284.411 222.69 275.525" fill="#FCC65D"/>
<path d="M221.021 274.801C215.424 266.019 199.853 268.747 195.527 277.372L195.033 275.504C202.961 281.159 214.983 282.964 221.724 274.56C222.827 273.185 224.759 275.137 223.656 276.49C216.201 285.786 202.52 284.191 193.658 277.854C193.028 277.403 192.807 276.7 193.164 275.987C198.467 265.421 216.737 262.977 223.383 273.416C224.328 274.906 221.966 276.28 221.021 274.791V274.801Z" fill="#181938"/>
<path d="M211.214 257.615C206.237 248.036 188.009 249.558 183.273 258.99C191.085 265.411 204.714 267.646 211.644 259.053" fill="#FCC65D"/>
<path d="M210.027 258.297C204.83 249.327 189.174 251.194 184.449 259.672L184.239 258.014C191.81 263.931 203.727 265.998 210.668 258.077C211.833 256.744 213.765 258.685 212.6 260.007C204.609 269.135 190.98 266.733 182.297 259.944C181.824 259.567 181.814 258.769 182.087 258.287C187.809 248.005 206.184 246.179 212.39 256.912C213.272 258.434 210.909 259.818 210.027 258.287V258.297Z" fill="#181938"/>
</g>
<mask id="mask5_0_630" style="mask-type:luminance" maskUnits="userSpaceOnUse" x="120" y="220" width="440" height="464">
<path d="M559.465 220.191H120.568V683.184H559.465V220.191Z" fill="white"/>
</mask>
<g mask="url(#mask5_0_630)">
<path d="M195.243 348.863L155.543 363.499V586.04L194.865 631.323" fill="#94ACB7"/>
<path d="M195.243 348.863L155.543 363.499V586.04M155.543 586.04V560.325M155.543 586.04L194.865 631.323" stroke="#181938" stroke-width="3" stroke-miterlimit="10"/>
<path d="M300.684 560.209C307.719 560.073 314.743 560.44 321.767 560.566C323.531 560.608 323.531 557.859 321.767 557.828C314.732 557.691 307.708 557.335 300.684 557.471C298.92 557.513 298.92 560.241 300.684 560.209Z" fill="#181938"/>
<path d="M324.266 560.566C333.821 560.388 343.355 560.587 352.858 561.636C354.611 561.825 354.59 559.087 352.858 558.898C343.355 557.838 333.821 557.66 324.266 557.828C322.502 557.859 322.502 560.598 324.266 560.566Z" fill="#181938"/>
<path d="M444.68 354.014V631.312H193.784V349.262L444.68 354.014Z" fill="#E8EFEB" stroke="#181938" stroke-width="3" stroke-miterlimit="10"/>
<path d="M309.514 452.973C314.995 455.344 316.055 457.936 321.631 460.653C326.965 463.244 332.005 463.79 335.291 463.874C349.277 466.906 356.806 452.679 368.891 450.654C387.539 451.053 388.201 477.398 373.48 484.931C366.266 489.673 347.356 500.606 323.941 497.059C320.665 496.566 291.412 492.118 286.582 474.019C284.409 465.836 287.139 454.547 293.974 451.284C299.518 448.64 306.742 451.766 309.514 452.962V452.973Z" fill="white"/>
<path d="M308.821 454.158C313.21 456.215 316.591 459.709 320.938 461.838C325.285 463.968 329.6 464.745 334.252 465.206C342.463 466.035 348.112 464.031 354.884 459.394C361.657 454.756 369.059 448.955 376.714 454.452C382.384 458.534 383.413 466.549 381.512 472.855C379.454 479.695 374.215 483.126 368.345 486.494C361.016 490.691 353.057 493.775 344.741 495.339C331.081 497.909 315.982 495.674 303.435 489.621C295.581 485.823 288.262 479.769 287.307 470.547C286.782 465.458 287.811 459.614 291.034 455.501C295.591 449.689 302.983 451.672 308.8 454.158C310.396 454.84 311.792 452.49 310.175 451.798C302.028 448.304 292.588 446.993 287.506 455.806C283.201 463.265 283.327 473.642 288.157 480.808C295.602 491.855 310.795 496.472 323.353 498.371C341.507 501.141 363.043 495.8 377.428 483.955C387.445 475.709 388.621 455.543 374.782 450.392C364.523 446.573 356.564 455.89 348.29 460.317C342.358 463.496 336.037 463.181 329.579 461.901C321.799 460.349 317.053 455.019 310.186 451.808C308.601 451.063 307.215 453.424 308.811 454.169V454.19L308.821 454.158Z" fill="#181938"/>
<path d="M332.036 464.388C330.997 475.299 330.808 486.305 328.865 497.112C328.55 498.832 331.196 499.577 331.501 497.846C333.485 486.798 333.706 475.551 334.766 464.388C334.934 462.636 332.194 462.646 332.026 464.388H332.036Z" fill="#181938"/>
<path d="M355.315 457.495C357.404 468.49 359.231 479.517 359.914 490.701C360.019 492.454 362.759 492.464 362.654 490.701C361.961 479.276 360.092 468.008 357.961 456.771C357.635 455.05 354.989 455.774 355.325 457.505L355.315 457.495Z" fill="#181938"/>
<path d="M312.937 438.001C313.934 437.351 315.069 436.7 316.339 436.092C319.804 434.444 323.059 433.762 325.558 433.469C342.473 348.065 287.118 362.366 311.499 436.564L312.937 438.001Z" fill="white"/>
<path d="M313.63 439.176C317.284 436.878 321.274 435.378 325.568 434.843C326.135 434.77 326.765 434.465 326.891 433.836C329.506 420.501 331.375 406.515 329.516 392.939C328.676 386.843 326.986 378.743 321.484 375.019C317.431 372.28 312.895 374.064 310.05 377.589C305.356 383.391 304.18 391.743 303.907 398.951C303.666 405.445 304.317 411.96 305.451 418.35C306.154 422.316 307.078 426.25 308.149 430.132C309.052 433.395 309.577 436.532 311.981 438.945C313.231 440.194 315.163 438.263 313.914 437.015C311.982 435.095 311.625 432.419 310.89 429.796C310.018 426.712 309.252 423.596 308.611 420.448C307.467 414.825 306.721 409.117 306.595 403.378C306.427 396.118 307.005 388.008 310.659 381.534C312.339 378.555 315.52 375.04 319.247 376.865C324.119 379.257 325.684 386.696 326.513 391.428C328.907 405.12 326.881 419.609 324.245 433.091L325.568 432.084C320.78 432.692 316.339 434.224 312.255 436.794C310.764 437.739 312.139 440.099 313.63 439.155V439.176Z" fill="#181938"/>
<path d="M310.921 454.977C307.54 466.602 304.989 478.489 300.715 489.851C300.096 491.499 302.742 492.212 303.351 490.586C307.614 479.223 310.176 467.347 313.557 455.711C314.05 454.011 311.415 453.298 310.921 454.977Z" fill="#181938"/>
<path d="M349.162 438.064C348.206 437.372 347.093 436.658 345.854 435.987C342.463 434.182 339.26 433.332 336.772 432.923C324.046 346.796 378.635 363.772 350.663 436.7L349.162 438.064Z" fill="white"/>
<path d="M349.865 436.879C346.033 434.193 341.759 432.42 337.139 431.601L338.095 432.556C336.268 419.997 335.144 406.83 337.234 394.219C338.158 388.658 339.722 380.947 344.647 377.401C347.954 375.019 351.241 377.044 353.215 380.076C356.963 385.815 357.499 393.495 357.362 400.147C357.236 406.264 356.312 412.328 354.947 418.277C354.139 421.77 353.162 425.222 352.07 428.632C351.125 431.57 350.506 435.001 348.196 437.088C346.894 438.274 348.826 440.204 350.128 439.019C352.291 437.057 352.868 434.759 353.813 432C355.01 428.517 356.092 424.981 356.995 421.403C358.496 415.507 359.557 409.474 359.956 403.41C360.47 395.583 360.103 386.686 356.165 379.667C353.971 375.764 349.897 372.281 345.182 374.022C339.428 376.152 336.866 383.538 335.522 388.91C331.921 403.273 333.338 418.812 335.438 433.28C335.501 433.7 335.974 434.161 336.394 434.235C340.793 435.011 344.794 436.658 348.458 439.229C349.907 440.246 351.283 437.865 349.834 436.868H349.855L349.865 436.879Z" fill="#181938"/>
<path d="M321.883 418.035C325.726 418.035 328.834 412.863 328.834 406.494C328.834 400.126 325.726 394.953 321.883 394.953C318.04 394.953 314.932 400.126 314.932 406.494C314.932 412.863 318.04 418.035 321.883 418.035Z" fill="#181938"/>
<path d="M352.007 418.203C355.85 418.203 358.958 413.031 358.958 406.662C358.958 400.294 355.85 395.121 352.007 395.121C348.164 395.121 345.056 400.294 345.056 406.662C345.056 413.031 348.164 418.203 352.007 418.203Z" fill="#181938"/>
<path d="M316.811 404.06C319.331 404.06 321.379 402.014 321.379 399.496C321.379 396.978 319.331 394.932 316.811 394.932C314.292 394.932 312.244 396.978 312.244 399.496C312.244 402.014 314.292 404.06 316.811 404.06Z" fill="white"/>
<path d="M346.789 405.141C349.309 405.141 351.356 403.095 351.356 400.577C351.356 398.059 349.309 396.013 346.789 396.013C344.269 396.013 342.221 398.059 342.221 400.577C342.221 403.095 344.269 405.141 346.789 405.141Z" fill="white"/>
</g>
<path d="M162.808 550.592C163.697 552.911 167.124 553.753 170.461 552.473C173.798 551.192 175.782 548.274 174.892 545.956C174.002 543.637 170.576 542.795 167.239 544.075C163.902 545.355 161.918 548.273 162.808 550.592Z" fill="#FFFCF5"/>
<path d="M111.839 568.693C117.411 583.217 133.309 590.624 147.348 585.238C161.387 579.851 168.251 563.711 162.679 549.188C157.107 534.665 141.209 527.258 127.17 532.644C113.131 538.03 106.267 554.17 111.839 568.693Z" fill="#FFFCF5"/>
<path d="M113.825 537.978C89.4198 553.435 118.166 614.154 145.718 594.733L113.825 537.978Z" fill="#FFFCF5"/>
<path d="M113.057 536.922C102.317 543.996 101.96 558.266 105.025 569.51C108.216 581.226 116.091 594.612 128.236 598.729C134.618 600.892 141.022 599.516 146.5 595.774C147.889 594.831 146.336 592.725 144.949 593.677C130.993 603.196 117.371 590.711 111.166 578.278C105.33 566.588 101.698 547.531 114.61 539.028C116.009 538.109 114.464 536 113.06 536.93L113.057 536.922Z" fill="#181938"/>
<path d="M153.52 568.736C164.018 578.078 165.722 579.241 165.722 579.241C170.068 585.083 164.858 593.455 158.468 595.012C147.493 597.173 135.944 590.75 127.653 583.999" fill="#FFFCF5"/>
<path d="M152.709 569.755C156.313 572.957 160.097 575.995 163.641 579.257C166.087 581.505 166.685 584.424 165.175 587.724C158.394 602.541 136.541 589.44 128.475 582.985C127.158 581.934 125.525 583.968 126.842 585.018C136.25 592.542 158.122 604.965 166.894 590.018C172.969 579.675 160.81 573.458 154.347 567.711C153.092 566.599 151.459 568.633 152.714 569.744L152.709 569.755Z" fill="#181938"/>
<path d="M162.641 550.181C195.626 560.026 175.701 590.44 148.227 572.593L162.641 550.181Z" fill="#FFFCF5"/>
<path d="M162.11 551.372C169.683 553.749 183.469 561.122 176.98 571.093C170.492 581.063 156.72 576.397 149.041 571.582C147.633 570.706 145.986 572.726 147.408 573.616C156.439 579.281 172.091 583.506 179.205 572.447C186.319 561.388 172.443 551.908 163.163 548.993C161.574 548.494 160.502 550.871 162.102 551.375L162.11 551.372Z" fill="#181938"/>
<path d="M173.109 550.804C179.308 548.091 180.23 538.597 173.89 535.477C169.052 532.311 163.058 534.126 157.779 532.313C148.538 525.834 135.912 520.122 125.941 529.1L124.817 528.599C124.258 519.274 120.324 510.041 124.188 500.881C131.158 483.058 155.409 476.232 171.781 483.161C173.179 483.501 176.35 484.045 179.221 482.422C184.297 479.552 185.892 471.347 182.449 465.969C179.149 460.816 172.651 460.514 171.938 460.499C146.719 455.501 121.458 466.469 109.223 487.299C93.6231 513.856 107.672 541.95 108.584 543.697" fill="#FFFCF5"/>
<path d="M173.577 552.022C182.722 547.302 180.404 535.456 171.009 532.799C168.282 532.029 165.445 532.139 162.648 531.889C159.23 531.579 157.02 530.117 154.164 528.427C149.071 525.424 143.257 522.997 137.237 523.163C134.479 523.234 131.781 523.924 129.321 525.185C128.238 525.74 127.312 526.627 126.241 527.14C126.077 527.222 126.284 528.223 125.64 527.538C125.955 527.874 125.806 525.276 125.783 525.145C124.84 517.755 122.432 510.07 124.873 502.714C129.11 489.983 142.374 482.789 155.16 481.899C158.218 481.685 161.286 481.813 164.299 482.333C167.313 482.854 169.853 484.181 172.71 484.659C177.476 485.449 181.92 483.24 184.099 478.939C186.436 474.343 186.03 468.285 182.796 464.224C180.237 461.004 176.439 459.797 172.539 459.225C159.523 457.306 146.844 457.866 134.643 463.245C123.186 468.303 113.455 476.937 107.365 487.919C98.0197 504.772 98.5452 527.098 107.363 544.156C108.126 545.634 110.568 544.715 109.799 543.221C96.2616 517.018 104.105 483.552 130.096 468.465C138.661 463.493 148.499 460.846 158.384 460.603C165.483 460.432 179.21 460.318 182.287 468.556C184.295 473.935 181.854 481.682 175.395 482.185C171.558 482.483 167.455 480.116 163.623 479.574C156.14 478.504 148.286 479.57 141.33 482.519C133.763 485.72 127.192 491.25 123.664 498.762C119.04 508.614 122.727 518.491 123.508 528.71C123.546 529.171 123.856 529.592 124.28 529.774L125.404 530.275C125.808 530.455 126.358 530.431 126.711 530.137C131.509 526.106 137.044 524.942 143.108 526.445C145.826 527.117 148.426 528.262 150.899 529.558C153.073 530.709 155.025 532.494 157.25 533.485C161.607 535.419 166.769 533.914 171.224 535.568C177.526 537.911 179.238 546.161 172.644 549.567C171.166 550.329 172.085 552.772 173.579 552.003L173.577 552.022Z" fill="#181938"/>
<path d="M153.245 540.407C159.649 543.307 163.674 551.369 160.343 557.938C159.587 559.44 161.966 560.493 162.726 558.999C166.704 551.156 161.953 541.492 154.303 538.017C152.768 537.32 151.707 539.702 153.241 540.399L153.245 540.407Z" fill="#181938"/>
<path d="M172.506 549.694C171.693 550.416 170.663 550.839 169.738 551.39C169.132 551.753 169.072 552.689 169.461 553.219C169.91 553.83 170.677 553.862 171.291 553.496C172.213 552.937 173.247 552.522 174.06 551.8C174.587 551.328 174.785 550.581 174.336 549.97C173.946 549.44 173.041 549.219 172.506 549.694Z" fill="#181938"/>
</g>
<defs>
<clipPath id="clip0_0_630">
<rect width="796" height="934" fill="white" transform="translate(-85)"/>
</clipPath>
</defs>
</svg>
