<svg width="998" height="402" viewBox="0 0 998 402" fill="none" xmlns="http://www.w3.org/2000/svg">
<path d="M720.136 65.2646C679.159 93.6189 630.051 113.128 583.241 94.8286C581.52 94.1567 580.713 97.3708 582.43 98.0328C614.736 110.652 649.128 105.687 680.556 91.6739C694.762 85.3348 708.359 77.2825 721.468 68.2125C723.032 67.1362 721.708 64.183 720.144 65.2593L720.136 65.2646Z" fill="#181938"/>
<path d="M581.981 97.6642C575.372 108.251 557.211 102.807 553.995 90.4759C562.948 84.2672 577.077 84.26 582.649 96.0083" fill="#FCC65D"/>
<path d="M581.012 96.4472C574.338 106.087 558.813 101.415 555.354 90.1004L554.644 91.9475C563.165 86.3577 575.704 85.8091 581.4 96.7939C582.346 98.6207 584.822 97.0493 583.872 95.2127C577.348 82.642 563.291 82.452 553.321 88.9944C552.835 89.3053 552.412 90.1587 552.612 90.8414C556.705 104.258 574.731 110.724 582.938 98.8757C584.07 97.2393 582.156 94.7905 581.004 96.4525L581.012 96.4472Z" fill="#181938"/>
<path d="M685.098 90.3794C694.076 98.0875 689.844 119.87 679.582 123.939C674.225 113.357 673.968 96.486 683.692 89.6071" fill="#FCC65D"/>
<path d="M684.362 91.8126C692.744 99.8003 688.054 118.266 678.911 122.467L680.809 123.153C675.983 113.094 675.251 98.0965 684.345 91.0888C685.848 89.9246 684.541 86.9609 683.021 88.1357C672.622 96.1561 672.671 112.92 678.337 124.735C678.755 125.595 679.507 125.76 680.235 125.421C691.652 120.169 695.695 98.368 685.825 88.9512C684.418 87.6095 682.959 90.4806 684.357 91.8027L684.362 91.8126Z" fill="#181938"/>
<path d="M643.11 105.246C648.638 116.681 637.279 134.46 626.528 133.13C625.287 120.853 630.857 105.345 642.095 103.856" fill="#FCC65D"/>
<path d="M641.873 106.035C646.74 117.298 636.489 132.152 626.584 131.459L627.898 132.759C626.992 121.014 631.735 107.493 642.404 105.493C644.194 105.158 643.558 101.893 641.789 102.226C629.487 104.536 624.121 120.026 625.168 133.504C625.223 134.242 625.925 134.768 626.482 134.804C638.548 135.66 650.18 117.947 644.345 104.454C643.519 102.538 641.047 104.12 641.873 106.035Z" fill="#181938"/>
<path d="M684.019 88.7108C673.021 90.0971 664.045 70.4696 669.44 59.2792C679.334 62.9053 688.927 75.2987 685.495 88.1719" fill="#FCC65D"/>
<path d="M684.077 87.0407C673.575 87.806 666.002 70.7892 670.641 60.1586L669.04 60.8915C678.309 64.6134 687.016 75.2179 684.159 87.6973C683.681 89.7764 686.367 90.7558 686.841 88.6668C690.103 74.3706 680.632 62.0131 669.852 57.6872C669.299 57.4709 668.524 57.7765 668.251 58.4201C662.735 71.0682 671.22 91.3266 683.972 90.4012C685.758 90.2716 685.881 86.9255 684.073 87.0558L684.077 87.0407Z" fill="#181938"/>
<path d="M600.427 104.671C600.807 117.867 583.777 127.178 574.815 119.954C578.551 108.419 589.577 97.87 600.075 102.87" fill="#FCC65D"/>
<path d="M599.02 104.609C598.894 117.267 584.034 124.747 575.542 118.526L576.156 120.439C579.929 109.602 589.493 100.191 599.669 104.472C601.371 105.194 602.178 101.98 600.481 101.268C588.784 96.3381 577.811 107.005 573.474 119.469C573.235 120.142 573.59 121.029 574.087 121.382C584.344 128.892 601.687 119.926 601.833 104.734C601.854 102.581 599.049 102.45 599.033 104.613L599.02 104.609Z" fill="#181938"/>
<path d="M622.992 106.387C625.343 119.297 609.992 132.093 600.087 126.904C602.031 114.755 611.3 102.011 622.38 104.689" fill="#FCC65D"/>
<path d="M621.625 106.767C623.424 119.321 609.673 129.586 600.496 125.312L601.431 127.399C603.579 115.727 611.437 104.33 622.331 106.379C624.111 106.709 624.2 103.359 622.432 103.033C610.362 100.774 601.145 113.396 598.741 126.434C598.566 127.369 598.924 128.167 599.676 128.521C610.963 133.764 626.492 120.917 624.354 106.021C624.045 103.889 621.32 104.644 621.62 106.757L621.625 106.767Z" fill="#181938"/>
<path d="M664.681 99.0187C672.224 108.683 664.497 129.053 653.768 130.635C650.243 119.009 652.764 102.399 663.431 97.9315" fill="#FCC65D"/>
<path d="M663.663 100.176C670.539 109.888 663.188 127.028 653.463 129.007L655.144 130.274C651.986 118.97 653.85 104.276 664.097 99.4175C665.768 98.6274 664.436 95.6795 662.774 96.4644C651.447 101.823 648.882 118.384 652.401 131.015C652.652 131.906 653.267 132.45 654.083 132.283C666.051 129.845 673.894 109.451 665.704 97.8702C664.541 96.2205 662.504 98.5365 663.676 100.181L663.663 100.176Z" fill="#181938"/>
<path d="M662.458 95.9962C651.428 96.9091 643.05 76.9119 648.773 65.9554C658.551 70.01 667.765 82.8106 663.944 95.527" fill="#FCC65D"/>
<path d="M662.514 94.326C651.96 94.6435 645.038 77.2103 649.971 66.8347L648.37 67.5675C657.544 71.6922 665.826 82.7206 662.602 95.0424C662.065 97.1086 664.747 98.0781 665.284 96.0119C668.979 81.856 659.793 69.1394 649.177 64.3534C648.62 64.1023 647.871 64.467 647.576 65.0863C641.663 77.5329 649.661 98.0523 662.404 97.6767C664.205 97.6266 664.315 94.2759 662.506 94.3313L662.514 94.326Z" fill="#181938"/>
<path d="M641.322 102.107C630.276 102.676 622.327 82.4296 628.288 71.65C637.977 76.0023 646.913 89.082 642.822 101.668" fill="#FCC65D"/>
<path d="M641.375 100.428C630.792 100.396 624.354 82.7422 629.483 72.5199L627.882 73.2527C636.979 77.6548 644.975 88.9924 641.481 101.183C640.893 103.231 643.583 104.195 644.163 102.153C648.183 88.131 639.169 75.1138 628.694 70.0484C628.127 69.7776 627.388 70.1869 627.093 70.7813C620.904 83.0872 628.541 103.749 641.27 103.788C643.076 103.798 643.186 100.447 641.371 100.443L641.375 100.428Z" fill="#181938"/>
<path d="M619.755 102.403C608.703 102.013 602.022 81.1199 608.623 70.8934C618.01 76.0851 626.123 89.9066 621.274 102.103" fill="#FCC65D"/>
<path d="M619.799 100.728C609.169 99.7638 604.116 81.4141 609.81 71.7673L607.883 72.3162C616.821 77.5928 624.249 89.509 619.925 101.623C619.215 103.61 621.909 104.559 622.607 102.592C627.395 89.1941 619.353 75.3652 609.351 69.4647C608.643 69.0438 607.894 69.2186 607.424 70.0136C600.446 81.8363 607.069 102.931 619.698 104.073C621.5 104.238 621.601 100.892 619.799 100.728Z" fill="#181938"/>
<path d="M599.546 100.078C588.49 100.247 581.061 79.7184 587.295 69.1695C596.867 73.8753 605.468 87.271 601.055 99.7074" fill="#FCC65D"/>
<path d="M599.595 98.4131C588.986 97.9931 583.113 80.0403 588.487 70.0546L586.886 70.7875C595.882 75.5326 603.509 87.1823 599.71 99.2386C599.068 101.258 601.758 102.222 602.392 100.208C606.771 86.324 598.023 73.0233 587.697 67.5832C587.13 67.2874 586.401 67.7414 586.096 68.3161C579.577 80.4282 586.801 101.278 599.49 101.774C601.293 101.848 601.403 98.4976 599.591 98.4282L599.595 98.4131Z" fill="#181938"/>
<path d="M886.61 209.946C901.135 156.097 926.657 102.308 971.671 78.4287C973.326 77.5495 972.123 74.5173 970.477 75.4002C939.416 91.8885 916.666 123.101 901.189 158.659C894.196 174.736 888.616 191.597 883.968 208.823C883.411 210.874 886.049 212.007 886.607 209.956L886.61 209.946Z" fill="#181938"/>
<path d="M971.016 75.3137C969.988 62.1636 986.523 51.6694 995.825 58.2516C992.659 70.027 982.173 81.3401 971.449 77.0776" fill="#FCC65D"/>
<path d="M972.42 75.4413C971.97 62.9432 986.116 53.9858 995.028 59.6175L994.519 57.6783C991.328 68.6478 982.325 79.0911 971.937 75.4949C970.21 74.8957 969.253 78.0442 970.988 78.6472C982.88 82.7587 993.424 71.6485 997.158 58.8117C997.344 58.1917 997.18 57.2194 996.649 56.8725C986.087 50.1881 969.078 59.8143 969.628 75.1796C969.705 77.301 972.499 77.5874 972.423 75.4308L972.42 75.4413Z" fill="#181938"/>
<path d="M898.543 163.254C887.556 164.717 878.485 145.158 883.822 133.923C893.732 137.492 903.383 149.813 900.02 162.702" fill="#FCC65D"/>
<path d="M898.287 161.602C887.585 162.38 880.713 144.916 885.145 134.48L883.351 135.489C892.575 139.095 901.527 149.645 898.705 162.125C898.242 164.193 900.874 165.347 901.343 163.259C904.567 148.981 895.131 136.574 884.3 132.337C883.508 132.032 882.857 132.512 882.507 133.346C876.975 146.384 886.196 165.806 898.804 164.897C900.601 164.767 900.075 161.468 898.295 161.605L898.287 161.602Z" fill="#181938"/>
<path d="M921.381 118.611C910.866 114.545 909.33 92.2546 918.058 84.6363C925.863 92.759 930.423 108.731 922.914 118.831" fill="#FCC65D"/>
<path d="M921.856 117.036C911.927 112.569 911.21 93.3354 918.953 85.9226L917.248 86.0092C924.506 94.0036 928.566 107.839 921.766 117.863C920.624 119.544 922.928 121.459 924.054 119.796C931.893 108.235 927.191 92.4398 918.857 83.271C918.402 82.7673 917.586 82.9388 917.152 83.3576C907.714 92.3794 909.01 114.84 920.907 120.188C922.595 120.949 923.544 117.796 921.856 117.036Z" fill="#181938"/>
<path d="M900.278 163.632C907.666 153.8 925.335 161.188 927.604 173.815C918.225 179.042 904.154 177.518 899.484 165.213" fill="#FCC65D"/>
<path d="M901.171 164.918C908.539 155.944 923.703 162.517 926.219 174.123L926.997 172.297C918.029 176.952 905.618 176.048 900.742 164.496C899.931 162.57 897.388 163.993 898.207 165.923C903.802 179.147 917.762 180.742 928.191 175.326C928.723 175.044 929.127 174.197 928.969 173.5C925.973 159.695 908.314 151.445 899.365 162.338C898.112 163.865 899.897 166.447 901.166 164.903L901.171 164.918Z" fill="#181938"/>
<path d="M953.392 84.8756C945.711 75.3825 953.134 54.8395 963.839 53.03C967.532 64.5839 965.261 81.2408 954.663 85.9318" fill="#FCC65D"/>
<path d="M954.471 83.7969C947.467 74.298 954.307 56.8503 964.099 54.6728L962.571 53.7435C965.846 64.8089 964.022 79.451 954.066 84.4178C952.397 85.2435 953.6 88.2758 955.26 87.4463C966.708 81.7441 968.874 65.0418 965.106 52.3168C964.906 51.626 964.145 51.2516 963.578 51.3876C951.752 54.0205 943.903 74.5586 952.312 85.9546C953.504 87.5703 955.66 85.423 954.459 83.8036L954.471 83.7969Z" fill="#181938"/>
<path d="M935.677 101.662C926.693 93.9588 930.916 72.1715 941.18 68.0963C946.548 78.6727 946.812 95.5523 937.084 102.433" fill="#FCC65D"/>
<path d="M936.48 100.286C928.105 92.4048 932.559 73.778 941.769 69.6062L939.904 68.8054C944.854 79.1899 945.411 93.9409 936.173 101.139C934.666 102.319 936.479 104.877 937.974 103.704C948.202 95.7213 947.968 78.9732 942.442 67.3681C942.048 66.5341 941.335 66.2281 940.578 66.5672C929.259 71.7079 924.932 93.676 934.871 103.024C936.297 104.36 937.896 101.618 936.489 100.289L936.48 100.286Z" fill="#181938"/>
<path d="M908.858 140.5C897.839 139.363 892.154 118.054 899.233 108.292C908.369 114.103 915.81 128.453 910.396 140.307" fill="#FCC65D"/>
<path d="M908.964 138.826C898.414 137.119 894.261 118.509 900.372 109.256L898.413 109.661C907.096 115.526 913.951 127.928 909.067 139.737C908.27 141.661 910.911 142.783 911.706 140.87C917.111 127.826 909.729 113.477 900.034 106.916C899.348 106.455 898.587 106.543 898.075 107.32C890.556 118.709 896.167 140.129 908.742 142.172C910.53 142.465 910.744 139.116 908.952 138.833L908.964 138.826Z" fill="#181938"/>
<path d="M912.202 140.964C919.879 131.458 937.312 139.599 939.207 152.314C929.673 157.13 915.655 155.001 911.362 142.501" fill="#FCC65D"/>
<path d="M913.097 142.249C920.755 133.566 935.669 140.969 937.824 152.622L938.601 150.796C929.478 155.076 917.145 153.517 912.63 141.788C911.87 139.824 909.336 141.251 910.095 143.215C915.289 156.682 929.24 158.771 939.804 153.828C940.359 153.568 940.71 152.699 940.582 152.003C937.994 138.029 920.551 129.195 911.3 139.674C909.991 141.153 911.788 143.728 913.1 142.239L913.097 142.249Z" fill="#181938"/>
<path d="M924.468 119.511C932.351 110.247 949.605 118.917 951.223 131.691C941.589 136.215 927.621 133.656 923.602 121.037" fill="#FCC65D"/>
<path d="M925.372 120.799C933.247 112.352 947.925 120.306 949.849 132.002L950.626 130.176C941.404 134.189 929.11 132.171 924.87 120.323C924.158 118.332 921.62 119.769 922.335 121.749C927.212 135.378 941.203 137.828 951.82 133.205C952.393 132.952 952.712 132.057 952.598 131.379C950.293 117.289 933.038 108.062 923.566 118.22C922.219 119.659 924.016 122.234 925.366 120.785L925.372 120.799Z" fill="#181938"/>
<path d="M940.315 102.029C948.739 93.4731 965.414 103.638 966.247 116.514C956.367 120.172 942.594 116.404 939.356 103.468" fill="#FCC65D"/>
<path d="M941.222 103.308C949.655 95.5155 963.696 105.095 964.876 116.815L965.999 114.865C956.405 118.1 944.209 115.199 940.627 102.744C940.04 100.7 937.508 102.152 938.092 104.171C942.05 117.95 955.775 121.781 966.509 118.157C967.27 117.902 967.728 117.174 967.632 116.207C966.183 101.844 949.438 91.483 939.422 100.743C937.992 102.063 939.792 104.628 941.222 103.308Z" fill="#181938"/>
<path d="M956.623 87.5805C964.736 78.6064 981.762 87.9015 983.048 100.723C973.303 104.891 959.406 101.829 955.71 89.0632" fill="#FCC65D"/>
<path d="M957.519 88.8558C965.631 80.6763 980.057 89.3054 981.667 101.02L982.445 99.1945C973.105 102.872 960.91 100.327 956.971 88.3354C956.315 86.3215 953.777 87.7587 954.436 89.7621C958.969 103.575 972.923 106.448 983.639 102.223C984.226 101.989 984.513 101.068 984.416 100.397C982.466 86.1868 965.412 76.4883 955.713 86.2764C954.332 87.6648 956.129 90.2403 957.514 88.8415L957.519 88.8558Z" fill="#181938"/>
<path d="M308.795 200.522C280.768 246.125 242.326 287.519 193.302 293.175C191.499 293.384 191.838 296.715 193.633 296.499C227.464 292.586 257.305 271.565 281.395 243.674C292.283 231.062 302.037 217.173 311.004 202.585C312.075 200.85 309.872 198.778 308.8 200.513L308.795 200.522Z" fill="#181938"/>
<path d="M193.097 296.377C190.595 309.241 172.131 312.953 165.047 303.196C171.166 293.22 184.107 286.446 193.154 294.54" fill="#FCC65D"/>
<path d="M191.801 295.727C188.921 307.754 173.131 310.91 166.165 302.202L166.135 304.234C172.065 295.032 183.368 288.523 192.273 295.858C193.753 297.079 195.494 294.453 194.007 293.226C183.812 284.834 170.87 291.393 163.932 302.162C163.591 302.68 163.489 303.664 163.902 304.194C172.154 314.524 190.837 311.815 194.38 297.029C194.868 294.987 192.293 293.661 191.795 295.735L191.801 295.727Z" fill="#181938"/>
<path d="M285.121 240.313C295.932 243.075 299.364 265.057 291.328 273.7C282.87 266.572 276.974 251.238 283.574 240.279" fill="#FCC65D"/>
<path d="M284.927 241.979C295.286 245.282 297.185 264.445 290.22 272.673L292.188 272.393C284.391 265.488 278.689 252.099 284.668 241.324C285.655 239.537 283.463 237.448 282.465 239.252C275.629 251.581 281.299 266.915 290.454 275.025C291.125 275.613 291.87 275.404 292.423 274.745C301.12 264.465 297.51 242.556 285.307 238.657C283.568 238.101 283.195 241.43 284.919 241.972L284.927 241.979Z" fill="#181938"/>
<path d="M251.645 274.043C260.546 281.871 256.105 303.599 245.809 307.531C240.553 296.877 240.453 280.003 250.248 273.256" fill="#FCC65D"/>
<path d="M250.776 275.358C259.014 283.345 254.606 301.864 245.3 305.973L246.94 306.534C242.169 296.209 241.977 281.55 251.081 274.607C252.608 273.443 250.929 270.757 249.42 271.91C238.926 279.917 239.207 296.679 244.689 308.525C244.987 309.174 245.807 309.32 246.329 309.086C257.67 304.091 262.383 282.292 252.51 272.726C251.11 271.367 249.376 273.999 250.776 275.358Z" fill="#181938"/>
<path d="M283.575 239.301C273.965 245.839 259.156 232.157 260.344 219.321C270.624 217.904 283.571 224.663 284.746 238.101" fill="#FCC65D"/>
<path d="M283.067 237.743C273.703 243.475 261.055 231.513 261.738 219.552L260.517 220.99C270.258 219.96 281.792 225.505 283.363 238.306C283.622 240.439 286.412 240.05 286.145 237.909C284.336 223.25 271.513 216.465 260.185 217.666C259.606 217.732 258.999 218.383 258.965 219.104C258.155 233.333 272.726 247.828 284.098 240.873C285.691 239.898 284.681 236.774 283.069 237.759L283.067 237.743Z" fill="#181938"/>
<path d="M212.348 293.961C217.123 305.868 204.646 322.554 194.012 320.229C193.564 307.872 200.125 292.927 211.421 292.479" fill="#FCC65D"/>
<path d="M211.039 294.577C215.171 306.234 204.066 320.204 194.2 318.573L195.404 320.031C195.224 308.296 200.828 295.094 211.588 294.141C213.389 293.988 213.05 290.657 211.256 290.817C198.886 291.904 192.413 306.932 192.621 320.428C192.628 321.158 193.251 321.801 193.825 321.886C205.742 323.854 218.621 307.333 213.658 293.345C212.954 291.362 210.341 292.585 211.052 294.575L211.039 294.577Z" fill="#181938"/>
<path d="M233.595 284.724C240.08 295.426 230.31 314.502 219.495 314.492C217.199 302.431 221.415 286.317 232.464 283.462" fill="#FCC65D"/>
<path d="M232.47 285.728C238.331 296.367 229.178 312.358 219.336 312.837L220.893 314.301C218.945 302.58 222.319 288.375 232.987 285.034C234.729 284.484 233.686 281.372 231.957 281.921C220.142 285.632 215.933 301.61 218.105 314.706C218.259 315.647 218.854 316.206 219.662 316.17C231.762 315.568 241.678 296.36 234.721 283.738C233.722 281.932 231.479 283.929 232.463 285.721L232.47 285.728Z" fill="#181938"/>
<path d="M269.317 258.005C279.471 263.246 279.227 285.609 269.928 292.197C262.798 283.234 259.534 266.81 267.807 257.608" fill="#FCC65D"/>
<path d="M268.772 259.554C278.33 265.158 277.347 284.382 269.101 290.852L271.066 291.208C264.38 282.365 261.158 268.01 268.915 258.651C270.181 257.127 267.972 255.064 266.712 256.58C258.133 266.914 261.341 283.314 268.803 293.201C269.332 293.897 270.077 294.1 270.768 293.557C280.915 285.591 281.257 263.151 269.868 256.464C268.249 255.51 267.161 258.607 268.786 259.552L268.772 259.554Z" fill="#181938"/>
<path d="M266.265 256.303C256.467 262.422 242.081 248.115 243.648 235.337C253.966 234.367 266.702 241.681 267.469 255.161" fill="#FCC65D"/>
<path d="M265.756 254.745C256.194 260.091 244.003 247.436 245.041 235.567L243.82 237.006C253.609 236.39 264.896 242.527 266.077 255.359C266.278 257.51 269.061 257.113 268.859 254.963C267.495 240.225 254.812 232.975 243.481 233.675C242.886 233.712 242.323 234.404 242.26 235.113C241.019 249.348 255.231 264.316 266.78 257.867C268.413 256.959 267.389 253.837 265.75 254.754L265.756 254.745Z" fill="#181938"/>
<path d="M248.951 272.025C239.023 277.837 224.946 263.096 226.791 250.366C237.128 249.712 249.703 257.414 250.177 270.904" fill="#FCC65D"/>
<path d="M248.437 270.461C238.73 275.501 226.909 262.412 228.178 250.59L226.957 252.028C236.768 251.704 247.898 258.261 248.787 271.103C248.936 273.26 251.724 272.855 251.569 270.706C250.547 255.935 237.922 248.327 226.625 248.704C226.015 248.727 225.476 249.456 225.405 250.142C223.864 264.38 237.793 279.65 249.468 273.59C251.126 272.734 250.102 269.611 248.438 270.477L248.437 270.461Z" fill="#181938"/>
<path d="M229.292 282.625C219.036 287.561 205.905 271.621 208.521 259.09C218.863 259.35 230.933 268.127 230.583 281.622" fill="#FCC65D"/>
<path d="M228.771 281.07C218.709 285.278 207.922 270.888 209.903 259.323L208.321 260.749C218.28 261.302 229.084 268.661 229.187 281.83C229.203 283.99 231.989 283.569 231.969 281.433C231.859 266.866 219.852 258.049 208.709 257.433C207.919 257.387 207.292 257.906 207.128 258.859C204.702 273.033 217.848 289.186 229.801 284.183C231.507 283.471 230.477 280.358 228.771 281.07Z" fill="#181938"/>
<path d="M210 290.175C199.928 295.625 186.234 280.377 188.406 267.727C198.754 267.453 211.128 275.606 211.258 289.113" fill="#FCC65D"/>
<path d="M209.485 288.627C199.625 293.324 188.221 279.689 189.793 267.967L188.573 269.406C198.406 269.444 209.303 276.463 209.868 289.328C209.957 291.486 212.745 291.081 212.65 288.931C212.003 274.114 199.525 266.12 188.241 266.081C187.622 266.082 187.106 266.847 187.02 267.52C185.112 281.739 198.725 297.38 210.516 291.756C212.194 290.96 211.17 287.838 209.487 288.643L209.485 288.627Z" fill="#181938"/>
<path d="M24.7713 320.692C38.2706 266.464 62.7642 211.997 107.314 186.904C108.952 185.98 107.691 182.981 106.062 183.908C75.322 201.234 53.1705 233.055 38.3726 269.024C31.6869 285.285 26.4281 302.293 22.1091 319.641C21.5907 321.706 24.2499 322.768 24.7683 320.703L24.7713 320.692Z" fill="#181938"/>
<path d="M106.603 183.807C105.325 170.688 121.657 159.748 131.081 166.077C128.139 177.935 117.871 189.529 107.069 185.558" fill="#FCC65D"/>
<path d="M108.007 183.896C107.32 171.414 121.293 162.075 130.309 167.464L129.764 165.539C126.781 176.592 117.98 187.277 107.526 183.963C105.788 183.411 104.891 186.584 106.637 187.14C118.604 190.928 128.934 179.535 132.423 166.601C132.598 165.976 132.415 165.008 131.877 164.676C121.192 158.279 104.369 168.364 105.212 183.71C105.329 185.829 108.127 186.04 108.01 183.886L108.007 183.896Z" fill="#181938"/>
<path d="M35.8182 273.69C24.8615 275.45 15.4214 256.141 20.5438 244.765C30.5193 248.064 40.4011 260.12 37.2844 273.098" fill="#FCC65D"/>
<path d="M35.529 272.043C24.8446 273.112 17.6435 255.839 21.8759 245.285L20.102 246.343C29.3918 249.698 38.5417 260.002 35.9572 272.556C35.5334 274.635 38.1867 275.718 38.6165 273.617C41.5684 259.256 31.8995 247.108 20.9905 243.165C20.1927 242.882 19.5511 243.38 19.2166 244.223C13.9336 257.407 23.5215 276.574 36.1093 275.324C37.9033 275.146 37.3142 271.861 35.5379 272.047L35.529 272.043Z" fill="#181938"/>
<path d="M57.7992 228.439C47.2092 224.659 45.2509 202.415 53.8321 194.563C61.7893 202.472 66.6506 218.316 59.3359 228.617" fill="#FCC65D"/>
<path d="M58.2451 226.851C48.2347 222.655 47.1524 203.445 54.7522 195.824L53.0498 195.957C60.4574 203.753 64.7791 217.474 58.1708 227.68C57.0615 229.392 59.4011 231.244 60.4956 229.55C68.1126 217.781 63.1123 202.116 54.6059 193.176C54.1422 192.685 53.3294 192.878 52.9036 193.309C43.6389 202.584 45.3607 225.004 57.3567 230.028C59.0585 230.742 59.947 227.565 58.2451 226.851Z" fill="#181938"/>
<path d="M37.5582 274.019C44.7575 263.99 62.5628 270.897 65.0705 283.459C55.7933 288.939 41.6966 287.797 36.7948 275.622" fill="#FCC65D"/>
<path d="M38.477 275.281C45.6728 266.11 60.9575 272.27 63.6934 283.804L64.4363 281.958C55.5583 286.855 43.1342 286.287 38.0398 274.871C37.1927 272.967 34.6768 274.458 35.5327 276.366C41.3768 289.435 55.364 290.651 65.6876 284.954C66.2138 284.657 66.6015 283.8 66.4305 283.107C63.1728 269.387 45.3621 261.618 36.6224 272.751C35.398 274.311 37.2318 276.844 38.471 275.267L38.477 275.281Z" fill="#181938"/>
<path d="M89.1632 193.844C81.3043 184.562 88.3354 163.823 99.0027 161.724C102.915 173.174 100.96 189.889 90.4541 194.866" fill="#FCC65D"/>
<path d="M90.2215 192.736C83.0394 183.43 89.5457 165.801 99.294 163.359L97.7488 162.471C101.233 173.445 99.6874 188.133 89.8281 193.368C88.1755 194.239 89.4357 197.238 91.0794 196.363C102.417 190.352 104.265 173.596 100.256 160.976C100.043 160.291 99.2753 159.937 98.7107 160.089C86.9377 163.041 79.4809 183.787 88.1042 194.952C89.3268 196.535 91.4412 194.33 90.2097 192.743L90.2215 192.736Z" fill="#181938"/>
<path d="M71.7721 211.106C62.6442 203.648 66.4517 181.752 76.6356 177.4C82.2034 187.828 82.7876 204.696 73.1932 211.838" fill="#FCC65D"/>
<path d="M72.5481 209.709C64.0262 202.057 68.1244 183.314 77.2533 178.894L75.3741 178.144C80.5194 188.391 81.356 203.123 72.2579 210.57C70.7736 211.79 72.634 214.299 74.1065 213.085C84.1804 204.828 83.6286 188.09 77.8841 176.638C77.4738 175.815 76.7558 175.528 76.0049 175.888C64.786 181.334 60.8779 203.414 70.9919 212.49C72.4423 213.787 73.9895 211.002 72.5569 209.712L72.5481 209.709Z" fill="#181938"/>
<path d="M45.6965 250.661C34.6586 249.823 28.5709 228.674 35.4628 218.722C44.707 224.284 52.4183 238.429 47.2305 250.426" fill="#FCC65D"/>
<path d="M45.7712 248.984C35.1917 247.563 30.6866 229.071 36.6206 219.655L34.6698 220.113C43.4618 225.741 50.5506 237.954 45.8919 249.892C45.1312 251.837 47.7934 252.888 48.5511 250.954C53.7071 237.766 46.0549 223.621 36.2378 217.325C35.5435 216.883 34.7839 216.991 34.287 217.782C26.9863 229.372 33.0029 250.633 45.6126 252.335C47.4064 252.58 47.5561 249.226 45.7594 248.991L45.7712 248.984Z" fill="#181938"/>
<path d="M49.05 251.034C56.5446 241.323 74.1277 248.99 76.263 261.65C66.8235 266.723 52.7686 264.974 48.2393 252.594" fill="#FCC65D"/>
<path d="M49.9683 252.295C57.4595 243.407 72.5103 250.404 74.8856 261.995L75.6285 260.149C66.5882 264.675 54.2295 263.45 49.4928 251.847C48.696 249.904 46.1889 251.399 46.9857 253.342C52.4337 266.665 66.4205 268.375 76.8887 263.147C77.4385 262.872 77.773 261.994 77.6315 261.301C74.7788 247.401 57.1725 239.042 48.1227 249.769C46.8421 251.283 48.6878 253.809 49.9713 252.285L49.9683 252.295Z" fill="#181938"/>
<path d="M60.9047 229.254C68.609 219.779 86.0234 227.979 87.8838 240.706C78.338 245.49 64.3248 243.31 60.0674 230.803" fill="#FCC65D"/>
<path d="M61.8312 230.518C69.5439 221.859 84.3697 229.414 86.5145 241.054L87.2574 239.208C78.1138 243.469 65.7849 241.785 61.3202 230.055C60.5707 228.084 58.0606 229.59 58.8131 231.55C63.9477 245.043 77.9817 247.113 88.5087 242.203C89.0763 241.935 89.3783 241.032 89.2516 240.357C86.6797 226.333 69.2538 217.576 59.9767 227.988C58.6577 229.463 60.5034 231.989 61.8253 230.504L61.8312 230.518Z" fill="#181938"/>
<path d="M76.4154 211.348C84.6749 202.566 101.539 212.276 102.616 225.126C92.8075 229.052 78.9664 225.657 75.4836 212.812" fill="#FCC65D"/>
<path d="M77.345 212.602C85.6278 204.583 99.8467 213.779 101.25 225.464L102.335 223.484C92.8052 226.979 80.5566 224.409 76.7395 212.054C76.1141 210.027 73.61 211.546 74.2324 213.549C78.4507 227.217 92.2445 230.675 102.907 226.761C103.664 226.486 104.107 225.745 103.993 224.781C102.272 210.461 85.3346 200.557 75.4964 210.086C74.0918 211.444 75.9404 213.96 77.345 212.602Z" fill="#181938"/>
<path d="M92.4432 196.461C100.384 187.27 117.582 196.101 119.111 208.884C109.448 213.315 95.4967 210.63 91.5587 197.968" fill="#FCC65D"/>
<path d="M93.3649 197.712C101.32 189.314 115.906 197.55 117.737 209.218L118.48 207.372C109.213 211.302 96.9727 209.088 92.8066 197.206C92.1133 195.211 89.6032 196.716 90.2996 198.701C95.0941 212.388 109.098 214.882 119.732 210.367C120.314 210.117 120.583 209.189 120.474 208.521C118.254 194.367 101.021 185.133 91.5104 195.182C90.156 196.607 92.0016 199.133 93.359 197.697L93.3649 197.712Z" fill="#181938"/>
<path d="M385.314 285.264C426.292 313.618 475.399 333.127 522.209 314.828C523.931 314.156 524.738 317.37 523.021 318.032C490.714 330.651 456.323 325.686 424.895 311.673C410.689 305.334 397.092 297.282 383.983 288.212C382.419 287.136 383.742 284.183 385.306 285.259L385.314 285.264Z" fill="#181938"/>
<path d="M523.47 317.664C530.079 328.25 548.24 322.807 551.455 310.475C542.502 304.267 528.374 304.26 522.802 316.008" fill="#FCC65D"/>
<path d="M524.439 316.447C531.112 326.086 546.638 321.414 550.097 310.1L550.806 311.947C542.286 306.357 529.747 305.809 524.05 316.793C523.104 318.62 520.628 317.049 521.578 315.212C528.102 302.641 542.16 302.451 552.13 308.994C552.616 309.305 553.039 310.158 552.839 310.841C548.745 324.257 530.719 330.724 522.513 318.875C521.38 317.239 523.294 314.79 524.447 316.452L524.439 316.447Z" fill="#181938"/>
<path d="M420.353 310.379C411.375 318.087 415.607 339.869 425.869 343.938C431.226 333.357 431.482 316.485 421.759 309.607" fill="#FCC65D"/>
<path d="M421.089 311.812C412.707 319.8 417.397 338.265 426.539 342.467L424.642 343.153C429.468 333.093 430.199 318.096 421.106 311.088C419.603 309.924 420.91 306.96 422.429 308.135C432.828 316.156 432.779 332.919 427.113 344.734C426.696 345.594 425.944 345.759 425.216 345.42C413.798 340.168 409.755 318.367 419.626 308.951C421.033 307.609 422.492 310.48 421.093 311.802L421.089 311.812Z" fill="#181938"/>
<path d="M462.34 325.245C456.813 336.68 468.171 354.459 478.923 353.129C480.163 340.852 474.593 325.344 463.355 323.855" fill="#FCC65D"/>
<path d="M463.577 326.035C458.71 337.297 468.962 352.152 478.867 351.458L477.553 352.758C478.459 341.014 473.716 327.492 463.046 325.493C461.256 325.158 461.893 321.892 463.662 322.226C475.963 324.535 481.329 340.026 480.282 353.504C480.227 354.241 479.525 354.767 478.968 354.804C466.902 355.66 455.271 337.947 461.105 324.454C461.932 322.538 464.404 324.119 463.577 326.035Z" fill="#181938"/>
<path d="M421.432 308.71C432.429 310.096 441.406 290.469 436.01 279.278C426.116 282.904 416.523 295.298 419.956 308.171" fill="#FCC65D"/>
<path d="M421.374 307.04C431.876 307.805 439.449 290.788 434.809 280.158L436.41 280.891C427.141 284.612 418.435 295.217 421.291 307.696C421.769 309.775 419.083 310.755 418.609 308.666C415.348 294.37 424.819 282.012 435.599 277.686C436.152 277.47 436.926 277.776 437.2 278.419C442.716 291.067 434.231 311.326 421.479 310.4C419.692 310.271 419.57 306.925 421.377 307.055L421.374 307.04Z" fill="#181938"/>
<path d="M505.024 324.67C504.644 337.866 521.673 347.177 530.636 339.953C526.9 328.418 515.874 317.869 505.375 322.869" fill="#FCC65D"/>
<path d="M506.43 324.608C506.556 337.266 521.417 344.746 529.908 338.525L529.295 340.438C525.522 329.601 515.958 320.19 505.781 324.471C504.079 325.193 503.272 321.979 504.97 321.267C516.667 316.337 527.64 327.004 531.977 339.468C532.216 340.141 531.861 341.028 531.363 341.381C521.107 348.892 503.764 339.925 503.617 324.733C503.597 322.58 506.401 322.449 506.418 324.612L506.43 324.608Z" fill="#181938"/>
<path d="M482.458 326.386C480.108 339.296 495.458 352.092 505.364 346.903C503.419 334.754 494.151 322.01 483.071 324.688" fill="#FCC65D"/>
<path d="M483.826 326.766C482.027 339.32 495.777 349.585 504.955 345.311L504.019 347.398C501.871 335.726 494.014 324.329 483.12 326.378C481.339 326.708 481.251 323.358 483.019 323.032C495.088 320.773 504.305 333.395 506.71 346.433C506.884 347.368 506.527 348.166 505.774 348.52C494.488 353.763 478.958 340.916 481.096 326.02C481.405 323.888 484.131 324.643 483.83 326.756L483.826 326.766Z" fill="#181938"/>
<path d="M440.769 319.017C433.226 328.682 440.953 349.052 451.683 350.634C455.208 339.007 452.686 322.398 442.02 317.93" fill="#FCC65D"/>
<path d="M441.787 320.175C434.912 329.887 442.263 347.027 451.988 349.006L450.307 350.273C453.465 338.969 451.601 324.275 441.353 319.417C439.683 318.626 441.014 315.679 442.677 316.463C454.004 321.822 456.568 338.383 453.049 351.014C452.798 351.905 452.183 352.449 451.368 352.282C439.4 349.844 431.556 329.45 439.746 317.869C440.91 316.22 442.946 318.536 441.775 320.18L441.787 320.175Z" fill="#181938"/>
<path d="M442.993 315.995C454.022 316.908 462.401 296.911 456.678 285.954C446.899 290.009 437.686 302.81 441.507 315.526" fill="#FCC65D"/>
<path d="M442.936 314.325C453.491 314.643 460.413 297.209 455.479 286.834L457.08 287.567C447.906 291.691 439.625 302.72 442.849 315.041C443.386 317.108 440.704 318.077 440.167 316.011C436.471 301.855 445.658 289.138 456.273 284.352C456.831 284.101 457.579 284.466 457.874 285.085C463.788 297.532 455.79 318.051 443.046 317.676C441.245 317.626 441.135 314.275 442.945 314.33L442.936 314.325Z" fill="#181938"/>
<path d="M464.128 322.106C475.174 322.675 483.124 302.429 477.163 291.649C467.473 296.001 458.537 309.081 462.629 321.667" fill="#FCC65D"/>
<path d="M464.075 320.427C474.659 320.395 481.097 302.741 475.967 292.519L477.568 293.252C468.472 297.654 460.475 308.991 463.97 321.182C464.558 323.23 461.867 324.194 461.288 322.152C457.268 308.13 466.282 295.113 476.757 290.047C477.323 289.777 478.062 290.186 478.358 290.78C484.547 303.086 476.909 323.748 464.181 323.787C462.374 323.797 462.265 320.446 464.079 320.442L464.075 320.427Z" fill="#181938"/>
<path d="M485.696 322.402C496.747 322.012 503.428 301.119 496.827 290.892C487.44 296.084 479.327 309.906 484.176 322.102" fill="#FCC65D"/>
<path d="M485.651 320.727C496.281 319.763 501.335 301.413 495.64 291.766L497.567 292.315C488.63 297.592 481.201 309.508 485.526 321.622C486.236 323.609 483.542 324.558 482.844 322.591C478.056 309.193 486.098 295.364 496.1 289.464C496.808 289.043 497.556 289.218 498.027 290.013C505.005 301.835 498.381 322.93 485.753 324.072C483.951 324.237 483.849 320.891 485.651 320.727Z" fill="#181938"/>
<path d="M505.905 320.078C516.96 320.247 524.39 299.718 518.155 289.169C508.583 293.875 499.983 307.271 504.396 319.707" fill="#FCC65D"/>
<path d="M505.856 318.412C516.465 317.992 522.337 300.039 516.964 290.054L518.565 290.786C509.569 295.532 501.941 307.181 505.74 319.238C506.383 321.257 503.693 322.221 503.058 320.207C498.679 306.323 507.428 293.022 517.753 287.582C518.32 287.286 519.05 287.74 519.354 288.315C525.874 300.427 518.65 321.277 505.961 321.773C504.157 321.847 504.047 318.497 505.86 318.427L505.856 318.412Z" fill="#181938"/>
</svg>
