<svg width="826" height="939" viewBox="0 0 826 939" fill="none" xmlns="http://www.w3.org/2000/svg">
<rect x="-1.5" y="1.5" width="758" height="892" transform="matrix(-1 0 0 1 758 2)" fill="#CCB8D6" stroke="#181938" stroke-width="3"/>
<path d="M759.5 894.06V3.05357L824.5 53.2494V846.937L759.5 894.06Z" fill="#A995B3" stroke="#181938" stroke-width="3" stroke-linejoin="round"/>
<path d="M760.5 7.5L794.5 84L823.5 53.5" stroke="#181938" stroke-width="3" stroke-linejoin="round"/>
<path d="M380.221 82.1487L248.5 145.612V4.5H512.5V145.606L381.526 82.1501L380.874 81.8341L380.221 82.1487Z" fill="#FCC65D" stroke="#181938" stroke-width="3"/>
<path d="M214.014 778.346C215.991 772.891 203.785 742.445 202.882 736.466C202.329 732.8 203.625 724.411 198.917 722.377C193.144 719.883 188.308 724.876 182.674 726.237C172.015 728.811 160.058 738.957 149.338 736.554C144.844 735.546 135.527 739.205 132.659 734.539C129.298 729.071 127.859 722.753 130.045 716.722C135.242 702.38 126.197 701.082 114.198 696.734C108.38 694.625 103.95 688.604 106.318 682.069C109.119 674.34 99.0454 674.848 96.3429 669.645C93.4041 663.987 93.2317 663.507 96.9551 657.59C99.1717 654.067 108.262 649.843 112.053 650.316C115.991 650.808 123.786 641.026 125.634 637.619C129.608 630.294 129.983 624.663 139.489 622.397C151.514 619.532 161.871 624.575 174.631 624.543C179.18 624.531 191.135 622.9 190.737 616.51C190.444 611.813 188.909 602.518 184.784 600.5C173.14 590.936 154.317 582.196 148.5 578.457C141.584 574.013 135.032 574.392 127.299 571.589C120.906 569.272 116.228 567.177 113.234 560.588C110.111 553.713 112.154 546.914 114.734 539.795C117.509 535.809 124.945 524.571 138 532.293C145.738 536.869 152.832 549.919 160.5 558.5C169.114 568.138 171.5 570 179 574.5C182.372 575.722 185.387 576.839 188.401 578.457C192.261 580.53 198.761 584.907 203.006 585.437C204.966 585.682 206.319 579.076 206.869 577.559C212.388 562.331 194.49 548.55 205.315 532.293C209.471 526.05 214.982 524.669 217.439 516.537C219.57 509.483 214.162 503.744 208.101 501.345C201.406 498.695 194.47 496.802 193.068 488.212C191.982 481.559 199.604 477.721 197.525 471.364C195.985 466.655 186.208 463.945 184.784 457.469C182.83 448.577 183.865 435.93 190.882 428.002C194.782 423.597 205.421 417.721 207.464 412.082C209.759 405.751 191.126 397.758 187.057 394.565C182.991 391.374 168.783 380.558 170.097 374.36C172.542 362.826 188.239 359.919 197.469 364.318C202.607 366.768 206.573 371.561 210.996 375.031C217.631 380.238 218.39 387.783 222.958 394.361C225.449 397.949 233.561 403.235 237.752 403.097C245.995 402.825 249.833 393.572 257.129 391.095C265.472 388.262 279.156 388.351 283.782 397.193C288.841 406.863 283.663 415.725 280.007 425.814C275.489 438.28 246.831 472.521 266.804 480.447C269.911 481.68 285.643 484.946 284.835 489.605C282.814 501.256 271.693 504.393 266.262 513.801C260.093 524.486 242.061 556.401 254.368 566.846C259.05 570.82 266.78 575.751 272.175 570.3C281.847 560.528 284.633 557.759 298.535 562.797C303.791 564.702 308.134 567.757 313.221 569.806C317.586 571.565 319.729 575.539 324.127 577.133C328.695 578.788 334.525 569.738 330.922 566.475C324.83 560.957 318.461 555.765 312.581 550.081C307.657 545.321 304.142 533.687 302 526.941C296.029 508.13 331.877 496.65 334.538 514.273C335.28 519.181 329.354 526.303 327.595 531.156C325.317 537.443 325.758 540.232 326.781 546.043C328.962 558.435 346.495 563.391 348.103 575.701C349.527 586.595 351.726 599.732 364.972 598.684C381.336 597.389 406.345 612.387 418.765 621.928C433.542 633.279 454.844 638.629 471.372 627.966C474.704 625.816 477.674 617.655 479.043 613.877C481.821 606.213 480.849 603.654 469.925 597.827C459 592 459.082 587.039 461.598 580.096C463.927 573.669 470.407 572.792 476.623 575.045C482.379 577.131 484.106 582.385 484.72 588.101C485.579 596.1 498.858 602.232 505.68 602.07C547.535 601.072 516.07 525.577 539.462 527.062C556.206 528.124 547.352 548.274 544.074 557.317C542.242 562.371 539.206 566.293 537.5 571C535.745 577.329 534.87 581.769 533.266 587.138C530.083 597.796 543.376 602.612 551.207 605.449L551.433 605.531C568.848 611.842 586.169 602.961 603.458 607.61C613.486 610.306 623.642 611.037 633.321 614.965C641.387 618.239 637.704 626.638 635.53 632.635C632.566 640.816 625.737 644.818 617.263 646.633C610.429 648.096 605.756 657.27 613.653 660.132C621.198 662.866 626.9 664.4 635.198 662.879C640.114 661.979 642.654 658.923 647.38 657.079C658.557 652.717 662.561 636.433 676 634.744C685.9 633.499 706.462 639.374 702.215 653.429C700.174 660.185 698.818 666.142 692.356 669.255C686.479 672.087 679.61 670.541 673.428 671.674C666.625 672.92 659.753 672.841 652.626 672.944C648.462 673.004 645.758 674.301 641.286 673.895C637.689 673.569 634.182 674.788 630.941 676.144C623.089 679.43 618.199 681.521 611.852 686.845C606.601 691.25 606.63 694.557 606.687 700.956L606.689 701.093C606.738 706.651 608.254 706.25 610.346 711.228C619.179 732.243 587.964 731.794 576.376 727.594C572.111 726.048 560.758 725.616 559.823 732.56C559.487 735.056 563.066 734.458 561.643 744.245C561.664 747.132 556.497 752.809 550.078 758.995C550.664 758.978 551.259 758.925 551.863 758.822C554.687 758.34 534.885 787.548 532.012 782.726C515.352 789.017 535.807 772.749 550.078 758.995C544.269 759.163 539.373 755.744 534.667 761.774C529.962 767.802 529.404 778.3 521.486 778.927C518.854 779.135 515.551 779.871 513.02 780.544C509.512 781.477 510.019 785.561 507.282 787.274C498.687 792.655 507.283 808.221 506.798 814.652L506.774 814.967C506.322 820.977 506.273 821.625 501.668 824.507C498.976 826.193 491.004 824.215 487.896 823.827C481.435 823.02 473.023 825.767 466.256 825.637C457.124 825.463 448.726 823.496 439.635 822.737C419.448 821.052 399.134 823.058 378.753 823.352C374.418 823.415 370.05 824.131 365.673 824.047C361.58 823.969 354.774 824.408 351.171 823.103C346.081 821.258 339.716 820.593 334.296 820.361C327.461 820.068 320.405 817.743 313.612 818.019C308.54 818.225 304.007 817.612 298.9 817.654C293.697 817.698 289.229 814.768 284.129 814.925C278.297 815.105 274.556 814.725 268.928 813.633C265.457 812.96 261.528 815.095 258.458 814.712C239.987 812.406 232.09 784.897 214.014 778.346Z" fill="white" stroke="#181938" stroke-width="3" stroke-linecap="round"/>
<path d="M288.088 651.766L290.107 651.284C290.244 651.252 290.381 651.219 290.517 651.188C295.714 649.918 299.48 648.386 302.081 646.749C304.751 645.069 306.134 643.319 306.646 641.682C307.643 638.497 305.457 635.04 301.044 632.474C296.705 629.95 290.567 628.549 284.627 629.429C278.716 630.305 273.025 633.432 269.448 639.959L268.703 639.55L267.957 639.142C275.121 626.068 267.537 612.988 259.525 608.329C257.539 607.174 255.59 606.578 253.895 606.596C252.226 606.613 250.792 607.221 249.728 608.521C248.644 609.845 247.874 611.974 247.753 615.151C247.633 618.322 248.163 622.469 249.607 627.744L248.787 627.968L247.968 628.193C246.523 622.918 244.863 619.025 243.134 616.268C241.403 613.507 239.635 611.937 237.995 611.219C236.382 610.513 234.827 610.6 233.395 611.287C231.939 611.987 230.571 613.329 229.452 615.183C224.943 622.648 224.996 637.456 237.942 645.99C237.942 645.99 237.942 645.99 237.942 645.99L237.474 646.699L237.006 647.409C235.604 646.484 234.342 645.49 233.213 644.44C209.437 634.764 186.555 672.189 217.54 669.009L288.088 651.766ZM288.088 651.766L289.865 652.839L289.868 652.84L290.165 653.02L290.504 652.94C290.641 652.907 290.776 652.874 290.911 652.841M288.088 651.766L290.911 652.841M290.911 652.841C296.123 651.63 300.226 651.278 303.367 651.534C306.595 651.798 308.746 652.697 310.072 653.899C312.635 656.221 312.51 660.145 310.018 664.271C305.054 672.489 291.54 679.882 278.423 671.798L277.977 672.521L277.531 673.245C290.667 681.341 290.451 696.668 285.587 704.72C283.147 708.761 279.798 710.606 276.596 709.359C274.931 708.711 273.148 707.192 271.424 704.433C269.702 701.678 268.073 697.738 266.697 692.351L265.873 692.561L265.05 692.772C266.426 698.159 266.874 702.372 266.666 705.573C266.458 708.779 265.598 710.903 264.429 712.205C262.174 714.717 258.268 714.577 254.098 712.058C249.987 709.576 245.995 704.946 244.027 699.304C242.069 693.688 242.122 687.089 246.049 680.588L245.321 680.148L244.593 679.709C240.667 686.21 234.85 689.328 228.969 690.209C223.06 691.094 217.104 689.715 212.993 687.232C208.823 684.713 206.881 681.321 208.055 678.156C208.663 676.516 210.143 674.766 212.883 673.09C215.62 671.416 219.558 669.851 224.966 668.562L224.769 667.735L224.572 666.908L290.911 652.841Z" fill="#FCC65D" stroke="#181938" stroke-width="1.7"/>
<path d="M290.304 652.111C333.996 641.697 305.232 689.32 277.977 672.521C305.232 689.32 276.991 736.079 265.873 692.561C276.991 736.079 229.034 707.114 245.321 680.148C229.034 707.114 181.078 678.149 224.769 667.735C181.078 678.149 210.725 629.063 237.474 646.699C210.723 629.066 237.12 585.36 248.787 627.968C237.12 585.36 283.588 612.384 268.703 639.55C283.588 612.384 333.998 641.699 290.307 652.113L290.304 652.111Z" stroke="#181938" stroke-width="1.7" stroke-miterlimit="10"/>
<path d="M455.849 488.246L457.868 487.765C458.033 487.726 458.197 487.687 458.361 487.649C464.614 486.121 469.156 484.275 472.301 482.297C475.529 480.266 477.224 478.135 477.855 476.118C479.091 472.17 476.368 467.952 471.05 464.859C465.806 461.81 458.396 460.118 451.222 461.181C444.078 462.239 437.192 466.022 432.867 473.914L432.122 473.506L431.376 473.097C440.036 457.294 430.865 441.49 421.184 435.861C418.782 434.463 416.411 433.735 414.336 433.756C412.286 433.777 410.514 434.526 409.2 436.131C407.867 437.76 406.936 440.358 406.79 444.195C406.644 448.027 407.285 453.026 409.023 459.371L408.203 459.596L407.383 459.82C405.646 453.475 403.646 448.782 401.558 445.453C399.468 442.12 397.321 440.203 395.309 439.323C393.325 438.454 391.405 438.561 389.642 439.408C387.855 440.266 386.19 441.906 384.834 444.152C379.377 453.186 379.448 471.076 395.083 481.383C395.083 481.383 395.083 481.383 395.083 481.383L394.615 482.092L394.148 482.802C392.614 481.791 391.222 480.71 389.963 479.574C361.064 467.19 332.909 513.296 371.382 508.809L455.849 488.246ZM455.849 488.246L457.626 489.32L457.629 489.322L457.927 489.502L458.266 489.421C458.43 489.382 458.593 489.342 458.755 489.303M455.849 488.246L458.755 489.303M458.755 489.303C465.026 487.845 469.972 487.419 473.769 487.729C477.668 488.047 480.292 489.135 481.922 490.613C485.093 493.485 484.897 498.304 481.889 503.285C475.892 513.213 459.562 522.154 443.706 512.382L443.26 513.105L442.814 513.829C458.69 523.614 458.424 542.134 452.547 551.865C449.599 556.746 445.503 559.051 441.539 557.508C439.494 556.711 437.328 554.855 435.245 551.523C433.165 548.193 431.202 543.444 429.547 536.963L428.723 537.174L427.9 537.384C429.555 543.865 430.097 548.943 429.846 552.812C429.594 556.685 428.554 559.279 427.116 560.88C424.323 563.992 419.523 563.775 414.493 560.737C409.521 557.734 404.7 552.141 402.325 545.328C399.958 538.541 400.022 530.561 404.767 522.705L404.04 522.265L403.312 521.826C398.567 529.683 391.534 533.453 384.426 534.517C377.289 535.586 370.096 533.922 365.124 530.919C360.094 527.881 357.668 523.734 359.121 519.813C359.87 517.795 361.681 515.667 364.992 513.642C368.3 511.619 373.047 509.735 379.553 508.184L379.356 507.357L379.159 506.53L458.755 489.303Z" fill="#FCC65D" stroke="#181938" stroke-width="1.7"/>
<path d="M458.065 488.592C510.54 476.084 475.995 533.281 443.26 513.105C475.995 533.281 442.076 589.439 428.723 537.174C442.076 589.439 384.479 554.652 404.04 522.265C384.479 554.652 326.882 519.865 379.356 507.357C326.882 519.865 362.489 460.91 394.615 482.092C362.487 460.914 394.19 408.423 408.203 459.596C394.19 408.423 449.999 440.879 432.122 473.506C449.999 440.879 510.543 476.086 458.069 488.594L458.065 488.592Z" stroke="#181938" stroke-width="1.7" stroke-miterlimit="10"/>
<path d="M410.762 671.328L410.156 671.294L409.927 671.856C402.2 690.826 387.396 697.541 375.031 694.677C362.667 691.813 352.322 679.273 353.723 658.837L353.765 658.232L353.206 657.996C335.042 650.338 328.75 635.149 331.74 622.245C334.729 609.341 347.058 598.466 366.739 599.574L367.345 599.609L367.574 599.046C375.3 580.076 390.105 573.362 402.469 576.226C414.834 579.09 425.178 591.63 423.777 612.065L423.736 612.671L424.295 612.907C442.458 620.564 448.75 635.753 445.761 648.657C442.772 661.561 430.442 672.437 410.762 671.328Z" fill="#FCC65D" stroke="#181938" stroke-width="1.7"/>
<path d="M410.714 672.177C395.014 710.724 350.028 700.303 352.875 658.779C315.862 643.175 326.681 596.466 366.786 598.726C382.487 560.179 427.473 570.599 424.625 612.124C461.639 627.728 450.819 674.436 410.714 672.177Z" stroke="#181938" stroke-width="1.7" stroke-miterlimit="10"/>
<path d="M527.936 679.169L527.59 679.256L527.41 679.562L527.408 679.565L526.378 681.314L528.346 680.821C528.448 680.796 528.55 680.77 528.65 680.744C534.012 679.449 537.677 679.81 540.058 681.148C542.443 682.488 543.732 684.92 544.073 688.198C544.416 691.492 543.785 695.544 542.404 699.893C541.027 704.231 538.922 708.811 536.371 713.14C533.82 717.47 530.834 721.531 527.707 724.838C524.572 728.153 521.333 730.669 518.286 731.965C515.253 733.255 512.501 733.306 510.173 731.87C507.805 730.409 505.679 727.291 504.21 721.787L503.389 722.006L502.567 722.225C504.037 727.732 503.734 731.448 502.401 733.824C501.092 736.157 498.669 737.404 495.365 737.699C492.047 737.995 487.952 737.312 483.547 735.881C479.154 734.453 474.507 732.299 470.106 729.707C465.706 727.114 461.57 724.093 458.192 720.942C454.806 717.782 452.224 714.531 450.875 711.486C449.531 708.452 449.448 705.729 450.854 703.454C452.287 701.136 455.39 699.069 460.92 697.686L460.713 696.862L460.507 696.037C454.979 697.42 451.2 697.098 448.744 695.77C446.333 694.466 445.017 692.089 444.637 688.889C444.256 685.668 444.84 681.699 446.173 677.432C447.503 673.176 449.56 668.678 452.067 664.423C457.108 655.869 463.856 648.476 469.981 645.887C473.008 644.607 475.776 644.541 478.135 645.943C480.529 647.365 482.696 650.41 484.231 655.792C484.231 655.792 484.231 655.792 484.231 655.792L485.048 655.559L485.866 655.326C485.866 655.326 485.866 655.326 485.866 655.326C484.328 649.938 484.592 646.305 485.895 643.981C487.175 641.698 489.586 640.46 492.905 640.154C496.233 639.848 500.352 640.498 504.787 641.879C509.212 643.257 513.898 645.346 518.342 647.867C522.787 650.387 526.97 653.328 530.395 656.401C533.828 659.481 536.455 662.655 537.842 665.631C539.223 668.594 539.334 671.25 537.959 673.474C536.579 675.704 533.581 677.712 528.238 679.095C528.138 679.119 528.037 679.144 527.936 679.169Z" fill="#FCC65D" stroke="#181938" stroke-width="1.7"/>
<path d="M528.142 679.994C573.094 668.749 515.337 766.775 503.389 722.006C515.337 766.775 415.762 708.106 460.713 696.862C415.762 708.106 472.545 611.732 485.048 655.559C472.543 611.735 573.092 668.752 528.14 679.997L528.142 679.994Z" stroke="#181938" stroke-width="1.7" stroke-miterlimit="10"/>
<path d="M346.486 434.55L345.917 434.76L345.931 435.367C346.185 446.564 340.237 453.046 333.543 454.277C326.848 455.509 318.984 451.567 315.237 441.012L315.034 440.44L314.427 440.447C303.676 440.56 297.303 434.343 296.012 427.326C294.722 420.309 298.466 412.231 308.554 408.512L309.123 408.302L309.11 407.695C308.855 396.498 314.803 390.016 321.497 388.785C328.192 387.553 336.057 391.495 339.803 402.05L340.006 402.622L340.613 402.615C351.364 402.502 357.737 408.719 359.028 415.736C360.319 422.753 356.575 430.831 346.486 434.55Z" fill="#FCC65D" stroke="#181938" stroke-width="1.7"/>
<path d="M346.78 435.348C347.304 458.397 322.148 463.024 314.436 441.297C292.188 441.531 287.384 415.412 308.26 407.714C307.736 384.665 332.892 380.038 340.604 401.766C362.853 401.531 367.657 427.651 346.78 435.348Z" stroke="#181938" stroke-width="1.7" stroke-miterlimit="10"/>
<path d="M177.255 661.812C181.524 671.99 177.966 682.659 170.042 685.983C162.119 689.306 152.014 684.367 147.746 674.188C143.477 664.01 147.035 653.341 154.959 650.018C162.882 646.694 172.986 651.633 177.255 661.812Z" fill="#FCC65D" stroke="#181938" stroke-width="3"/>
<path d="M333.468 731.579C322.757 734.244 312.756 729.099 310.681 720.761C308.607 712.423 315.031 703.191 325.741 700.526C336.452 697.861 346.453 703.007 348.528 711.344C350.602 719.682 344.178 728.914 333.468 731.579Z" fill="#FCC65D" stroke="#181938" stroke-width="3"/>
<path d="M589.363 611.809C584.406 621.67 573.986 625.904 566.309 622.045C558.632 618.186 555.815 607.298 560.772 597.436C565.729 587.575 576.148 583.341 583.825 587.2C591.502 591.059 594.32 601.947 589.363 611.809Z" fill="#FCC65D" stroke="#181938" stroke-width="3"/>
<path d="M193.886 758.688C191.063 753.688 194.676 747.5 200.417 747.5H560.486C566.246 747.5 569.856 753.723 566.997 758.723L490.944 891.723C489.608 894.059 487.124 895.5 484.433 895.5H275.514C272.808 895.5 270.313 894.043 268.983 891.688L193.886 758.688Z" fill="#FCC65D" stroke="#181938" stroke-width="3"/>
</svg>
