<svg width="67" height="64" viewBox="0 0 67 64" fill="none" xmlns="http://www.w3.org/2000/svg">
<path d="M50.2494 15.7893C72.5835 -5.63717 72.5835 32.203 50.2494 32.0068C72.5835 32.203 72.5835 69.3566 50.2494 47.9301C72.5835 69.3566 33.5 69.3566 33.5 47.9301C33.5 69.3566 -5.58353 69.3566 16.7506 47.9301C-5.58353 69.3566 -5.58353 30.3534 16.7506 31.2155C-5.58353 30.3557 -5.58353 -4.37143 16.7506 16.3321C-5.58353 -4.37143 31.911 -4.97807 32.82 16.0721C31.911 -4.97807 72.5859 -5.63717 50.2518 15.7893H50.2494Z" fill="white"/>
<path d="M50.2494 15.7893C72.5835 -5.63717 72.5835 32.203 50.2494 32.0068C72.5835 32.203 72.5835 69.3566 50.2494 47.9301C72.5835 69.3566 33.5 69.3566 33.5 47.9301C33.5 69.3566 -5.58353 69.3566 16.7506 47.9301C-5.58353 69.3566 -5.58353 30.3534 16.7506 31.2155C-5.58353 30.3557 -5.58353 -4.37143 16.7506 16.3321C-5.58353 -4.37143 31.911 -4.97807 32.82 16.0721C31.911 -4.97807 72.5859 -5.63717 50.2517 15.7893H50.2494Z" fill="white"/>
</svg>
